<?xml version="1.0" encoding="utf-8"?>
<!-- Generator: Adobe Illustrator 15.1.0, SVG Export Plug-In . SVG Version: 6.00 Build 0)  -->
<!DOCTYPE svg PUBLIC "-//W3C//DTD SVG 1.1//EN" "http://www.w3.org/Graphics/SVG/1.1/DTD/svg11.dtd">
<svg version="1.1" xmlns="http://www.w3.org/2000/svg" xmlns:xlink="http://www.w3.org/1999/xlink" x="0px" y="0px" width="320px"
	 height="480px" viewBox="0 0 320 480" enable-background="new 0 0 320 480" xml:space="preserve">
<g id="Layer_1">
	<rect x="0" y="-1.883" display="none" fill="#172A37" width="320" height="481.883"/>
	
		<line opacity="0.75" fill="none" stroke="#A8C4D9" stroke-width="1.8298" stroke-miterlimit="10" x1="-963.526" y1="-83.565" x2="-328.225" y2="-83.565"/>
	<rect x="-769.184" y="-88.315" opacity="0.75" fill="#172A37" width="29.564" height="9.5"/>
	<rect x="-664.184" y="-88.315" opacity="0.75" fill="#172A37" width="29.564" height="9.5"/>
	<rect x="-561.184" y="-88.315" opacity="0.75" fill="#172A37" width="29.564" height="9.5"/>
	<rect x="-457.184" y="-88.315" opacity="0.75" fill="#172A37" width="29.564" height="9.5"/>
	<rect x="-353.184" y="-88.315" opacity="0.75" fill="#172A37" width="29.564" height="9.5"/>
	<rect x="-454.805" y="-88.315" opacity="0.75" fill="#172A37" width="23.513" height="9.5"/>
	<rect x="-558.644" y="-88.315" opacity="0.75" fill="#172A37" width="23.514" height="9.5"/>
	<rect x="-662.483" y="-88.315" opacity="0.75" fill="#172A37" width="23.515" height="9.5"/>
	<rect x="-766.321" y="-88.315" opacity="0.75" fill="#172A37" width="23.515" height="9.5"/>
	<rect x="-873.184" y="-88.315" opacity="0.75" fill="#172A37" width="29.564" height="9.5"/>
	<rect x="-350.968" y="-88.315" opacity="0.75" fill="#172A37" width="23.515" height="9.5"/>
	
		<line fill="none" stroke="#EEEB6A" stroke-width="1.9279" stroke-linecap="round" stroke-miterlimit="10" x1="-751.724" y1="4.233" x2="-495.272" y2="4.233"/>
	<circle fill="#EEEB6A" cx="-623.616" cy="4.235" r="4"/>
	
		<line fill="none" stroke="#EEEB6A" stroke-width="1.8523" stroke-linecap="round" stroke-miterlimit="10" x1="-595.382" y1="34.233" x2="-395.454" y2="34.233"/>
	<circle fill="#EEEB6A" cx="-497.272" cy="34.235" r="4"/>
	
		<line fill="none" stroke="#669166" stroke-width="1.8393" stroke-linecap="round" stroke-miterlimit="10" x1="-958.12" y1="334.233" x2="-494.812" y2="334.233"/>
	<circle fill="#669166" cx="-727.86" cy="334.234" r="4"/>
	<rect x="-969.159" y="-88.315" opacity="0.75" fill="#172A37" width="28.039" height="9.5"/>
	
		<line opacity="0.25" fill="none" stroke="#A8C4D9" stroke-miterlimit="10" stroke-dasharray="4" x1="-1129.508" y1="64.496" x2="-339.211" y2="64.496"/>
	
		<line opacity="0.25" fill="none" stroke="#A8C4D9" stroke-miterlimit="10" stroke-dasharray="4" x1="-1129.508" y1="244.496" x2="-339.211" y2="244.496"/>
	
		<line opacity="0.25" fill="none" stroke="#A8C4D9" stroke-miterlimit="10" stroke-dasharray="4" x1="-1129.508" y1="364.496" x2="-339.211" y2="364.496"/>
	
		<line fill="none" stroke="#EEEB6A" stroke-width="1.1978" stroke-linecap="round" stroke-miterlimit="10" x1="36.351" y1="35.813" x2="155.093" y2="35.813"/>
	<circle fill="#EEEB6A" cx="93.547" cy="35.814" r="2.5"/>
	<polyline fill="none" stroke="#A8C4D9" stroke-miterlimit="10" points="93.702,27.32 93.702,15.32 130.351,15.32 	"/>
	<line fill="none" stroke="#A8C4D9" stroke-miterlimit="10" x1="163.664" y1="34.926" x2="172.11" y2="34.926"/>
	
		<text transform="matrix(0.7054 0 0 1 -961.1196 -79.9502)" opacity="0.75" fill="#A8C4D9" font-family="'AtlasGrotesk-Regular'" font-size="16">88</text>
	
		<text transform="matrix(0.7054 0 0 1 -866.1196 -79.9502)" opacity="0.75" fill="#A8C4D9" font-family="'AtlasGrotesk-Regular'" font-size="16">90</text>
	
		<text transform="matrix(0.7054 0 0 1 -762.1196 -79.9502)" opacity="0.75" fill="#A8C4D9" font-family="'AtlasGrotesk-Regular'" font-size="16">92</text>
	
		<text transform="matrix(0.7054 0 0 1 -658.1196 -79.9502)" opacity="0.75" fill="#A8C4D9" font-family="'AtlasGrotesk-Regular'" font-size="16">94</text>
	
		<text transform="matrix(0.7054 0 0 1 -554.4517 -80.3325)" opacity="0.75" fill="#A8C4D9" font-family="'AtlasGrotesk-Regular'" font-size="16">96</text>
	
		<text transform="matrix(0.7054 0 0 1 -450.4517 -80.3325)" opacity="0.75" fill="#A8C4D9" font-family="'AtlasGrotesk-Regular'" font-size="16">98</text>
	
		<text transform="matrix(0.7054 0 0 1 -348.4517 -80.3325)" opacity="0.75" fill="#A8C4D9" font-family="'AtlasGrotesk-Regular'" font-size="16">100</text>
	<g>
		<text transform="matrix(0.7054 0 0 1 -700.7246 -112.667)" fill="#A8C4D9" font-family="'AtlasGrotesk-Bold'" font-size="20">SURVIVAL RATE (%)</text>
	</g>
	<g>
		<text transform="matrix(0.7054 0 0 1 134.6987 19.5928)" fill="#A8C4D9" font-family="'AtlasGrotesk-Regular'" font-size="12">ANNUAL SURVIVAL RATE</text>
	</g>
	<g>
		<text transform="matrix(0.7054 0 0 1 179.6855 39.1494)" fill="#A8C4D9" font-family="'AtlasGrotesk-Regular'" font-size="12">95% CONFIDENCE INTERVAL</text>
	</g>
	<g>
		<text transform="matrix(0.7054 0 0 1 -484.2896 9.2349)" fill="#A8C4D9" font-family="'AtlasGrotesk-Regular'" font-size="16">1965 - 1991</text>
	</g>
	<g>
		<text transform="matrix(0.7054 0 0 1 -384.2896 39.0391)" fill="#A8C4D9" font-family="'AtlasGrotesk-Regular'" font-size="16">1992 - 2016</text>
	</g>
	
		<line fill="none" stroke="#EEEB6A" stroke-width="1.8096" stroke-linecap="round" stroke-miterlimit="10" x1="-710.12" y1="128.233" x2="-656.12" y2="128.233"/>
	<circle fill="#EEEB6A" cx="-682.358" cy="128.234" r="4"/>
	
		<line fill="none" stroke="#EEEB6A" stroke-width="1.9339" stroke-miterlimit="10" x1="-532.121" y1="158.233" x2="-478.121" y2="158.233"/>
	<circle fill="#EEEB6A" cx="-505.745" cy="158.234" r="4"/>
	
		<line fill="none" stroke="#EEEB6A" stroke-width="1.9853" stroke-linecap="round" stroke-miterlimit="10" x1="-864.12" y1="98.233" x2="-556.121" y2="98.233"/>
	<circle fill="#EEEB6A" cx="-710.447" cy="98.235" r="4"/>
	<g>
		<text transform="matrix(0.7054 0 0 1 -544.1196 102.2349)" fill="#A8C4D9" font-family="'AtlasGrotesk-Regular'" font-size="16">1939 - 1964</text>
	</g>
	<g>
		<text transform="matrix(0.7054 0 0 1 -467.1196 164.0396)" fill="#A8C4D9" font-family="'AtlasGrotesk-Regular'" font-size="16">1992 - 2016</text>
	</g>
	<g>
		<text transform="matrix(0.7054 0 0 1 -644.1196 132.2349)" fill="#A8C4D9" font-family="'AtlasGrotesk-Regular'" font-size="16">1965 - 1991</text>
	</g>
	<circle fill="#669166" cx="-752.388" cy="218.234" r="4"/>
	<g>
		<text transform="matrix(0.7054 0 0 1 -482.6196 193.2349)" fill="#A8C4D9" font-family="'AtlasGrotesk-Regular'" font-size="16">Sarasota Bay, 1980 - 1987</text>
	</g>
	<g>
		<text transform="matrix(0.7054 0 0 1 -737.6196 223.2349)" fill="#A8C4D9" font-family="'AtlasGrotesk-Regular'" font-size="16">Indian River</text>
	</g>
	
		<line fill="none" stroke="#EEEB6A" stroke-width="2.031" stroke-linecap="round" stroke-miterlimit="10" x1="-895.525" y1="274.233" x2="-578.786" y2="274.233"/>
	<circle fill="#EEEB6A" cx="-737.995" cy="274.234" r="4"/>
	
		<line fill="none" stroke="#EEEB6A" stroke-width="1.8925" stroke-linecap="round" stroke-miterlimit="10" x1="-672.12" y1="304.233" x2="-398.119" y2="304.233"/>
	<circle fill="#EEEB6A" cx="-521.492" cy="304.234" r="4"/>
	<g>
		<text transform="matrix(0.7054 0 0 1 -566.4907 278.2344)" fill="#A8C4D9" font-family="'AtlasGrotesk-Regular'" font-size="16">1965 - 1991</text>
	</g>
	<g>
		<text transform="matrix(0.7054 0 0 1 -385.6548 308.2344)" fill="#A8C4D9" font-family="'AtlasGrotesk-Regular'" font-size="16">1992 - 2016</text>
	</g>
	<g>
		<text transform="matrix(0.7054 0 0 1 -482.6548 338.2344)" fill="#A8C4D9" font-family="'AtlasGrotesk-Regular'" font-size="16">British Columbia, 1991 - 2013</text>
	</g>
	
		<line fill="none" stroke="#EEEB6A" stroke-width="1.5922" stroke-linecap="round" stroke-miterlimit="10" x1="-686.116" y1="395.899" x2="-491.449" y2="395.899"/>
	<circle fill="#EEEB6A" cx="-588.995" cy="395.9" r="4"/>
	
		<line fill="none" stroke="#EEEB6A" stroke-width="1.7104" stroke-linecap="round" stroke-miterlimit="10" x1="-574.78" y1="425.899" x2="-350.968" y2="425.899"/>
	<circle fill="#EEEB6A" cx="-463.492" cy="425.9" r="4"/>
	<g>
		<text transform="matrix(0.7054 0 0 1 -478.6548 399.2344)" fill="#A8C4D9" font-family="'AtlasGrotesk-Regular'" font-size="16">1965 - 1991</text>
	</g>
	<g>
		<text transform="matrix(0.7054 0 0 1 -338.6548 429.7344)" fill="#A8C4D9" font-family="'AtlasGrotesk-Regular'" font-size="16">1992 - 2016</text>
	</g>
	<circle fill="#669166" cx="-457.86" cy="455.9" r="4"/>
	
		<line fill="none" stroke="#669166" stroke-width="1.8393" stroke-linecap="round" stroke-miterlimit="10" x1="-536.786" y1="485.899" x2="-518.108" y2="485.899"/>
	<circle fill="#669166" cx="-527.492" cy="485.9" r="4"/>
	
		<line fill="none" stroke="#669166" stroke-width="1.8393" stroke-linecap="round" stroke-miterlimit="10" x1="-524.108" y1="515.899" x2="-500.108" y2="515.899"/>
	<circle fill="#669166" cx="-511.492" cy="515.9" r="4"/>
	<g>
		<text transform="matrix(0.7054 0 0 1 -444.6548 459.7344)" fill="#A8C4D9" font-family="'AtlasGrotesk-Regular'" font-size="16">British Columbia 1991 - 2013</text>
	</g>
	<g>
		<text transform="matrix(0.7054 0 0 1 -506.6548 489.7344)" fill="#A8C4D9" font-family="'AtlasGrotesk-Regular'" font-size="16">Southern Residents 1975 - 2015</text>
	</g>
	<g>
		<text transform="matrix(0.7054 0 0 1 -488.6548 519.7344)" fill="#A8C4D9" font-family="'AtlasGrotesk-Regular'" font-size="16">Northern Residents 1975 - 2014</text>
	</g>
	<g opacity="0.75">
		<text transform="matrix(0.7054 0 0 1 -1002.7866 132.8071)" fill="#A8C4D9" font-family="'AtlasGrotesk-Regular'" font-size="14">CAPTIVE</text>
	</g>
	<g opacity="0.75">
		<text transform="matrix(0.7054 0 0 1 -1002.7866 207.9053)" fill="#A8C4D9" font-family="'AtlasGrotesk-Regular'" font-size="14">WILD</text>
	</g>
	<g opacity="0.75">
		<text transform="matrix(0.7054 0 0 1 -1002.7866 34.2339)" fill="#A8C4D9" font-family="'AtlasGrotesk-Medium'" font-size="14">CAPTIVE</text>
	</g>
	<g opacity="0.75">
		<text transform="matrix(0.7054 0 0 1 -1002.7866 293.9053)" fill="#A8C4D9" font-family="'AtlasGrotesk-Regular'" font-size="14">CAPTIVE</text>
	</g>
	<g opacity="0.75">
		<text transform="matrix(0.7054 0 0 1 -1002.7866 338.2334)" fill="#A8C4D9" font-family="'AtlasGrotesk-Regular'" font-size="14">WILD</text>
	</g>
	<g opacity="0.75">
		<text transform="matrix(0.7054 0 0 1 -1002.7866 415.1553)" fill="#A8C4D9" font-family="'AtlasGrotesk-Regular'" font-size="14">CAPTIVE</text>
	</g>
	<g opacity="0.75">
		<text transform="matrix(0.7054 0 0 1 -1002.7866 490.4053)" fill="#A8C4D9" font-family="'AtlasGrotesk-Regular'" font-size="14">WILD</text>
	</g>
	<text transform="matrix(0.7054 0 0 1 -1129.7046 -9.667)" fill="#FFFFFF" font-family="'AtlasGrotesk-Bold'" font-size="18">BELUGA</text>
	<text transform="matrix(0.7054 0 0 1 -1129.7046 91.333)" fill="#FFFFFF" font-family="'AtlasGrotesk-Bold'" font-size="18">BOTTLENOSE</text>
	<text transform="matrix(0.7054 0 0 1 -1129.7046 271.333)" fill="#FFFFFF" font-family="'AtlasGrotesk-Bold'" font-size="18">P. WHITE-SIDED</text>
	<text transform="matrix(0.7054 0 0 1 -1129.7046 390.333)" fill="#FFFFFF" font-family="'AtlasGrotesk-Bold'" font-size="18">ORCA</text>
</g>
<g id="Layer_2">
	<line fill="none" stroke="#A8C4D9" stroke-miterlimit="10" x1="66.968" y1="114.273" x2="297.271" y2="114.273"/>
	<g>
		<text transform="matrix(0.7054 0 0 1 128.7573 96.8179)" fill="#A8C4D9" font-family="'AtlasGrotesk-Bold'" font-size="16">SURVIVAL RATE (%)</text>
	</g>
	<rect x="184.209" y="109.523" fill="#172A37" width="21.514" height="9.5"/>
	
		<text transform="matrix(0.7054 0 0 1 187.248 118.8882)" opacity="0.75" fill="#A8C4D9" font-family="'AtlasGrotesk-Regular'" font-size="16">95</text>
	<g>
		<rect x="276" y="109.523" fill="#172A37" width="21.515" height="9.5"/>
		
			<text transform="matrix(0.7054 0 0 1 279.0391 118.8882)" opacity="0.75" fill="#A8C4D9" font-family="'AtlasGrotesk-Regular'" font-size="16">100</text>
	</g>
	<g>
		<rect x="91" y="109.523" fill="#172A37" width="21.515" height="9.5"/>
		
			<text transform="matrix(0.7054 0 0 1 94.0396 118.8882)" opacity="0.75" fill="#A8C4D9" font-family="'AtlasGrotesk-Regular'" font-size="16">90</text>
	</g>
	
		<line fill="none" stroke="#EEEB6A" stroke-width="1.9279" stroke-linecap="round" stroke-miterlimit="10" x1="385.967" y1="153.587" x2="642.418" y2="153.587"/>
	
		<line fill="none" stroke="#EEEB6A" stroke-width="1.8523" stroke-linecap="round" stroke-miterlimit="10" x1="542.309" y1="183.587" x2="742.236" y2="183.587"/>
	<circle fill="#EEEB6A" cx="640.418" cy="183.589" r="4"/>
	<g>
		<text transform="matrix(0.7054 0 0 1 653.4004 158.5884)" fill="#A8C4D9" font-family="'AtlasGrotesk-Regular'" font-size="16">1965 - 1991</text>
	</g>
	<g>
		<text transform="matrix(0.7054 0 0 1 753.4004 188.3926)" fill="#A8C4D9" font-family="'AtlasGrotesk-Regular'" font-size="16">1992 - 2016</text>
	</g>
	
		<text transform="matrix(0.7054 0 0 1 10.9824 153.7354)" opacity="0.6" fill="#EEEB6A" font-family="'AtlasGrotesk-Regular'" font-size="12">CAPTIVE</text>
	<text transform="matrix(0.7054 0 0 1 2 129.6865)" fill="#FFFFFF" font-family="'AtlasGrotesk-Bold'" font-size="14">BELUGA</text>
	<g>
		<circle fill="#EEEB6A" cx="180.667" cy="141.807" r="2.5"/>
		
			<line fill="none" stroke="#EEEB6A" stroke-linecap="round" stroke-miterlimit="10" x1="127.667" y1="142.235" x2="233" y2="142.235"/>
		<g>
			<text transform="matrix(0.7054 0 0 1 245.4004 146.8071)" fill="#A8C4D9" font-family="'AtlasGrotesk-Regular'" font-size="12">‘65 - ’91</text>
		</g>
		
			<line fill="none" stroke="#EEEB6A" stroke-linecap="round" stroke-miterlimit="10" x1="194.334" y1="156.332" x2="263.001" y2="156.332"/>
		<circle fill="#EEEB6A" cx="228.168" cy="156.332" r="2.5"/>
		<g>
			<text transform="matrix(0.7054 0 0 1 275.4004 160.8071)" fill="#A8C4D9" font-family="'AtlasGrotesk-Regular'" font-size="12">‘92 - ’16</text>
		</g>
	</g>
	
		<text transform="matrix(0.7054 0 0 1 10.9824 235.71)" opacity="0.6" fill="#EEEB6A" font-family="'AtlasGrotesk-Regular'" font-size="12">CAPTIVE</text>
	<text transform="matrix(0.7054 0 0 1 2 204.6611)" fill="#FFFFFF" font-family="'AtlasGrotesk-Bold'" font-size="14">BOTTLENOSE</text>
	<g>
		<circle fill="#EEEB6A" cx="153.667" cy="216.781" r="2.5"/>
		
			<line fill="none" stroke="#EEEB6A" stroke-linecap="round" stroke-miterlimit="10" x1="101.757" y1="217.209" x2="205.723" y2="217.209"/>
		<g>
			<text transform="matrix(0.7054 0 0 1 218.4004 221.7817)" fill="#A8C4D9" font-family="'AtlasGrotesk-Regular'" font-size="12">‘39 - ’64</text>
		</g>
		
			<line fill="none" stroke="#EEEB6A" stroke-linecap="round" stroke-miterlimit="10" x1="139.334" y1="231.307" x2="157.667" y2="231.307"/>
		<circle fill="#EEEB6A" cx="149.168" cy="231.307" r="2.5"/>
		<g>
			<text transform="matrix(0.7054 0 0 1 170.4004 235.7817)" fill="#A8C4D9" font-family="'AtlasGrotesk-Regular'" font-size="12">‘65 - ’91</text>
		</g>
		<circle fill="#EEEB6A" cx="230.267" cy="244.781" r="2.5"/>
		
			<line fill="none" stroke="#EEEB6A" stroke-linecap="round" stroke-miterlimit="10" x1="221.357" y1="245.209" x2="240.332" y2="245.209"/>
		<g>
			<text transform="matrix(0.7054 0 0 1 253 249.7812)" fill="#A8C4D9" font-family="'AtlasGrotesk-Regular'" font-size="12">‘92 - ’16</text>
		</g>
	</g>
	
		<text transform="matrix(0.7054 0 0 1 10.9824 270.71)" opacity="0.6" fill="#669166" font-family="'AtlasGrotesk-Regular'" font-size="12">WILD</text>
	<g>
		
			<line fill="none" stroke="#669166" stroke-linecap="round" stroke-miterlimit="10" x1="204.334" y1="259.307" x2="233" y2="259.307"/>
		<circle fill="#669166" cx="218.168" cy="259.307" r="2.5"/>
		<g>
			<text transform="matrix(0.7054 0 0 1 245.4004 263.7812)" fill="#A8C4D9" font-family="'AtlasGrotesk-Regular'" font-size="12">Sarasota Bay</text>
		</g>
		<circle fill="#669166" cx="139.168" cy="273.307" r="2.5"/>
		<g>
			<text transform="matrix(0.7054 0 0 1 149.4009 277.7812)" fill="#A8C4D9" font-family="'AtlasGrotesk-Regular'" font-size="12">Indian River</text>
		</g>
	</g>
	
		<text transform="matrix(0.7054 0 0 1 10.9824 336.8877)" opacity="0.6" fill="#EEEB6A" font-family="'AtlasGrotesk-Regular'" font-size="12">CAPTIVE</text>
	<text transform="matrix(0.7054 0 0 1 2 312.8398)" fill="#FFFFFF" font-family="'AtlasGrotesk-Bold'" font-size="14">P. WHITE SIDED</text>
	<g>
		<circle fill="#EEEB6A" cx="140.667" cy="324.96" r="2.5"/>
		
			<line fill="none" stroke="#EEEB6A" stroke-width="1.0125" stroke-linecap="round" stroke-miterlimit="10" x1="87.757" y1="325.388" x2="194.334" y2="325.388"/>
		<g>
			<text transform="matrix(0.7054 0 0 1 218.4004 329.96)" fill="#A8C4D9" font-family="'AtlasGrotesk-Regular'" font-size="12">‘65 - ’91</text>
		</g>
		
			<line fill="none" stroke="#EEEB6A" stroke-linecap="round" stroke-miterlimit="10" x1="169.334" y1="339.485" x2="251" y2="339.485"/>
		<circle fill="#EEEB6A" cx="210.168" cy="339.485" r="2.5"/>
		<g>
			<text transform="matrix(0.7054 0 0 1 262.4004 343.96)" fill="#A8C4D9" font-family="'AtlasGrotesk-Regular'" font-size="12">‘92 - ’16</text>
		</g>
	</g>
	<circle fill="#669166" cx="151.267" cy="352.96" r="2.5"/>
	
		<line fill="none" stroke="#669166" stroke-linecap="round" stroke-miterlimit="10" x1="69.5" y1="353.388" x2="232.767" y2="353.388"/>
	<g>
		<text transform="matrix(0.7054 0 0 1 244 357.96)" fill="#A8C4D9" font-family="'AtlasGrotesk-Regular'" font-size="12">B. Columbia</text>
	</g>
	
		<text transform="matrix(0.7054 0 0 1 10.9824 358.4844)" opacity="0.6" fill="#669166" font-family="'AtlasGrotesk-Regular'" font-size="12">WILD</text>
	
		<text transform="matrix(0.7054 0 0 1 10.9824 417.7344)" opacity="0.6" fill="#EEEB6A" font-family="'AtlasGrotesk-Regular'" font-size="12">CAPTIVE</text>
	<text transform="matrix(0.7054 0 0 1 2 393.6865)" fill="#FFFFFF" font-family="'AtlasGrotesk-Bold'" font-size="14">ORCA</text>
	<g>
		<circle fill="#EEEB6A" cx="175.667" cy="405.807" r="2.5"/>
		
			<line fill="none" stroke="#EEEB6A" stroke-linecap="round" stroke-miterlimit="10" x1="138.757" y1="406.234" x2="213.667" y2="406.234"/>
		<g>
			<text transform="matrix(0.7054 0 0 1 224.4004 410.8066)" fill="#A8C4D9" font-family="'AtlasGrotesk-Regular'" font-size="12">‘65 - ’91</text>
		</g>
		
			<line fill="none" stroke="#EEEB6A" stroke-linecap="round" stroke-miterlimit="10" x1="194.334" y1="420.332" x2="269.667" y2="420.332"/>
		<circle fill="#EEEB6A" cx="232.168" cy="420.332" r="2.5"/>
		<g>
			<text transform="matrix(0.7054 0 0 1 280.4004 424.8066)" fill="#A8C4D9" font-family="'AtlasGrotesk-Regular'" font-size="12">‘92 - ’16</text>
		</g>
	</g>
	
		<text transform="matrix(0.7054 0 0 1 10.9824 452.7354)" opacity="0.6" fill="#669166" font-family="'AtlasGrotesk-Regular'" font-size="12">WILD</text>
	<g>
		<g>
			<text transform="matrix(0.7054 0 0 1 254 438.8066)" fill="#A8C4D9" font-family="'AtlasGrotesk-Regular'" font-size="12">B. Columbia</text>
		</g>
		<circle fill="#669166" cx="244.267" cy="433.807" r="2.5"/>
		<circle fill="#669166" cx="225.267" cy="447.807" r="2.5"/>
		
			<line fill="none" stroke="#669166" stroke-linecap="round" stroke-miterlimit="10" x1="218.4" y1="448.234" x2="232.767" y2="448.234"/>
		<g>
			<text transform="matrix(0.7054 0 0 1 244 452.8066)" fill="#A8C4D9" font-family="'AtlasGrotesk-Regular'" font-size="12">S. Residents</text>
		</g>
		<circle fill="#669166" cx="247.267" cy="461.807" r="2.5"/>
		
			<line fill="none" stroke="#669166" stroke-linecap="round" stroke-miterlimit="10" x1="242.4" y1="462.234" x2="251.767" y2="462.234"/>
		<g>
			<text transform="matrix(0.7054 0 0 1 263 466.8066)" fill="#A8C4D9" font-family="'AtlasGrotesk-Regular'" font-size="12">N. Residents</text>
		</g>
	</g>
	<g opacity="0.25">
		<g>
			<line fill="none" stroke="#A8C4D9" stroke-miterlimit="10" x1="0" y1="187.502" x2="2" y2="187.502"/>
			<line fill="none" stroke="#A8C4D9" stroke-miterlimit="10" stroke-dasharray="4,4" x1="6" y1="187.502" x2="316" y2="187.502"/>
			<line fill="none" stroke="#A8C4D9" stroke-miterlimit="10" x1="318" y1="187.502" x2="320" y2="187.502"/>
		</g>
	</g>
	<g opacity="0.25">
		<g>
			<line fill="none" stroke="#A8C4D9" stroke-miterlimit="10" x1="0" y1="299.016" x2="2" y2="299.016"/>
			<line fill="none" stroke="#A8C4D9" stroke-miterlimit="10" stroke-dasharray="4,4" x1="6" y1="299.016" x2="316" y2="299.016"/>
			<line fill="none" stroke="#A8C4D9" stroke-miterlimit="10" x1="318" y1="299.016" x2="320" y2="299.016"/>
		</g>
	</g>
	<g opacity="0.25">
		<g>
			<line fill="none" stroke="#A8C4D9" stroke-miterlimit="10" x1="0" y1="377.527" x2="2" y2="377.527"/>
			<line fill="none" stroke="#A8C4D9" stroke-miterlimit="10" stroke-dasharray="4,4" x1="6" y1="377.527" x2="316" y2="377.527"/>
			<line fill="none" stroke="#A8C4D9" stroke-miterlimit="10" x1="318" y1="377.527" x2="320" y2="377.527"/>
		</g>
	</g>
</g>
</svg>
