<?xml version="1.0" encoding="utf-8"?>
<!-- Generator: Adobe Illustrator 15.1.0, SVG Export Plug-In . SVG Version: 6.00 Build 0)  -->
<!DOCTYPE svg PUBLIC "-//W3C//DTD SVG 1.1//EN" "http://www.w3.org/Graphics/SVG/1.1/DTD/svg11.dtd">
<svg version="1.1" id="Layer_1" xmlns="http://www.w3.org/2000/svg" xmlns:xlink="http://www.w3.org/1999/xlink" x="0px" y="0px"
	 width="960px" height="803.567px" viewBox="0 0 960 803.567" enable-background="new 0 0 960 803.567" xml:space="preserve">
<rect display="none" fill="#172A37" width="960" height="803.567"/>
<line fill="none" stroke="#EEEB6A" stroke-width="1.9279" stroke-linecap="round" stroke-miterlimit="10" x1="465.396" y1="236.9" x2="721.848" y2="236.9"/>
<circle fill="#EEEB6A" cx="593.504" cy="236.902" r="4"/>
<line fill="none" stroke="#EEEB6A" stroke-width="1.8523" stroke-linecap="round" stroke-miterlimit="10" x1="621.737" y1="266.9" x2="821.666" y2="266.9"/>
<circle fill="#EEEB6A" cx="719.848" cy="266.902" r="4"/>
<line fill="none" stroke="#669166" stroke-width="1.8393" stroke-linecap="round" stroke-miterlimit="10" x1="259" y1="566.9" x2="722.308" y2="566.9"/>
<circle fill="#669166" cx="489.26" cy="566.901" r="4"/>
<line opacity="0.25" fill="none" stroke="#A8C4D9" stroke-miterlimit="10" stroke-dasharray="4" x1="67.611" y1="297.163" x2="857.908" y2="297.163"/>
<line opacity="0.25" fill="none" stroke="#A8C4D9" stroke-miterlimit="10" stroke-dasharray="4" x1="67.611" y1="477.163" x2="857.908" y2="477.163"/>
<line opacity="0.25" fill="none" stroke="#A8C4D9" stroke-miterlimit="10" stroke-dasharray="4" x1="67.611" y1="597.163" x2="857.908" y2="597.163"/>
<line fill="none" stroke="#FFFFFF" stroke-width="1.1978" stroke-linecap="round" stroke-miterlimit="10" x1="667" y1="64.993" x2="785.742" y2="64.993"/>
<ellipse fill="#FFFFFF" cx="724.196" cy="64.994" rx="2.821" ry="3.335"/>
<polyline fill="none" stroke="#A8C4D9" stroke-miterlimit="10" points="724.352,49.5 724.352,30.5 761,30.5 "/>
<line fill="none" stroke="#A8C4D9" stroke-miterlimit="10" x1="794.313" y1="64.106" x2="802.76" y2="64.106"/>
<g>
	
		<line opacity="0.75" fill="none" stroke="#A8C4D9" stroke-width="1.8298" stroke-miterlimit="10" x1="253.594" y1="149.102" x2="888.895" y2="149.102"/>
	<rect x="447.935" y="144.352" fill="#172A37" width="29.565" height="9.5"/>
	<rect x="552.936" y="144.352" fill="#172A37" width="29.564" height="9.5"/>
	<rect x="655.936" y="144.352" fill="#172A37" width="29.564" height="9.5"/>
	<rect x="759.936" y="144.352" fill="#172A37" width="29.564" height="9.5"/>
	<rect x="863.936" y="144.352" fill="#172A37" width="29.564" height="9.5"/>
	<rect x="762.314" y="144.352" fill="#172A37" width="23.513" height="9.5"/>
	<rect x="658.476" y="144.352" fill="#172A37" width="23.514" height="9.5"/>
	<rect x="554.637" y="144.352" fill="#172A37" width="23.515" height="9.5"/>
	<rect x="450.799" y="144.352" fill="#172A37" width="23.515" height="9.5"/>
	<rect x="343.935" y="144.352" fill="#172A37" width="29.565" height="9.5"/>
	<rect x="866.151" y="144.352" fill="#172A37" width="23.515" height="9.5"/>
	<rect x="247.96" y="144.352" fill="#172A37" width="28.04" height="9.5"/>
	
		<text transform="matrix(0.7054 0 0 1 256 152.7168)" opacity="0.75" fill="#A8C4D9" font-family="'AtlasGrotesk-Regular'" font-size="16">88</text>
	
		<text transform="matrix(0.7054 0 0 1 351 152.7168)" opacity="0.75" fill="#A8C4D9" font-family="'AtlasGrotesk-Regular'" font-size="16">90</text>
	
		<text transform="matrix(0.7054 0 0 1 455 152.7168)" opacity="0.75" fill="#A8C4D9" font-family="'AtlasGrotesk-Regular'" font-size="16">92</text>
	
		<text transform="matrix(0.7054 0 0 1 559 152.7168)" opacity="0.75" fill="#A8C4D9" font-family="'AtlasGrotesk-Regular'" font-size="16">94</text>
	
		<text transform="matrix(0.7054 0 0 1 662.668 152.3345)" opacity="0.75" fill="#A8C4D9" font-family="'AtlasGrotesk-Regular'" font-size="16">96</text>
	
		<text transform="matrix(0.7054 0 0 1 766.668 152.3345)" opacity="0.75" fill="#A8C4D9" font-family="'AtlasGrotesk-Regular'" font-size="16">98</text>
	
		<text transform="matrix(0.7054 0 0 1 868.668 152.3345)" opacity="0.75" fill="#A8C4D9" font-family="'AtlasGrotesk-Regular'" font-size="16">100</text>
</g>
<g>
	<text transform="matrix(0.7054 0 0 1 513.8574 129)" fill="#A8C4D9" font-family="'AtlasGrotesk-Bold'" font-size="16">SURVIVAL RATE (%)</text>
</g>
<g>
	<text transform="matrix(0.7054 0 0 1 765.3477 34.7725)" fill="#A8C4D9" font-family="'AtlasGrotesk-Regular'" font-size="12">ANNUAL SURVIVAL RATE</text>
</g>
<g>
	<text transform="matrix(0.7054 0 0 1 810.334 68.3291)" fill="#A8C4D9" font-family="'AtlasGrotesk-Regular'" font-size="12">95% CONFIDENCE INTERVAL</text>
</g>
<g>
	<text transform="matrix(0.7054 0 0 1 732.8301 241.9019)" fill="#A8C4D9" font-family="'AtlasGrotesk-Regular'" font-size="16">1965 - 1991</text>
</g>
<g>
	<text transform="matrix(0.7054 0 0 1 832.8301 271.7061)" fill="#A8C4D9" font-family="'AtlasGrotesk-Regular'" font-size="16">1992 - 2016</text>
</g>
<line fill="none" stroke="#EEEB6A" stroke-width="1.8096" stroke-linecap="round" stroke-miterlimit="10" x1="507" y1="360.9" x2="561" y2="360.9"/>
<circle fill="#EEEB6A" cx="534.762" cy="360.901" r="4"/>
<line fill="none" stroke="#EEEB6A" stroke-width="1.9339" stroke-miterlimit="10" x1="684.999" y1="390.9" x2="738.999" y2="390.9"/>
<circle fill="#EEEB6A" cx="711.375" cy="390.901" r="4"/>
<line fill="none" stroke="#EEEB6A" stroke-width="1.9853" stroke-linecap="round" stroke-miterlimit="10" x1="353" y1="330.9" x2="660.999" y2="330.9"/>
<circle fill="#EEEB6A" cx="506.673" cy="330.902" r="4"/>
<g>
	<text transform="matrix(0.7054 0 0 1 673 334.9019)" fill="#A8C4D9" font-family="'AtlasGrotesk-Regular'" font-size="16">1939 - 1964</text>
</g>
<g>
	<text transform="matrix(0.7054 0 0 1 750 396.707)" fill="#A8C4D9" font-family="'AtlasGrotesk-Regular'" font-size="16">1992 - 2016</text>
</g>
<g>
	<text transform="matrix(0.7054 0 0 1 573 364.9023)" fill="#A8C4D9" font-family="'AtlasGrotesk-Regular'" font-size="16">1965 - 1991</text>
</g>
<line fill="none" stroke="#669166" stroke-width="1.8393" stroke-linecap="round" stroke-miterlimit="10" x1="627.12" y1="420.9" x2="722.308" y2="420.9"/>
<circle fill="#669166" cx="675.33" cy="420.901" r="4"/>
<circle fill="#669166" cx="464.731" cy="450.901" r="4"/>
<g>
	<text transform="matrix(0.7054 0 0 1 734.5 425.9023)" fill="#A8C4D9" font-family="'AtlasGrotesk-Regular'" font-size="16">Sarasota Bay, 1980 - 1987</text>
</g>
<g>
	<text transform="matrix(0.7054 0 0 1 479.5 454.9023)" fill="#A8C4D9" font-family="'AtlasGrotesk-Regular'" font-size="16">Indian River</text>
</g>
<line fill="none" stroke="#EEEB6A" stroke-width="2.031" stroke-linecap="round" stroke-miterlimit="10" x1="321.595" y1="506.9" x2="638.334" y2="506.9"/>
<circle fill="#EEEB6A" cx="479.125" cy="506.901" r="4"/>
<line fill="none" stroke="#EEEB6A" stroke-width="1.8925" stroke-linecap="round" stroke-miterlimit="10" x1="545" y1="536.9" x2="819.001" y2="536.9"/>
<circle fill="#EEEB6A" cx="695.628" cy="536.901" r="4"/>
<g>
	<text transform="matrix(0.7054 0 0 1 650.6289 510.9023)" fill="#A8C4D9" font-family="'AtlasGrotesk-Regular'" font-size="16">1965 - 1991</text>
</g>
<g>
	<text transform="matrix(0.7054 0 0 1 831.4648 540.9023)" fill="#A8C4D9" font-family="'AtlasGrotesk-Regular'" font-size="16">1992 - 2016</text>
</g>
<g>
	<text transform="matrix(0.7054 0 0 1 734.4648 570.9023)" fill="#A8C4D9" font-family="'AtlasGrotesk-Regular'" font-size="16">British Columbia, 1991 - 2013</text>
</g>
<line fill="none" stroke="#EEEB6A" stroke-width="1.5922" stroke-linecap="round" stroke-miterlimit="10" x1="531.004" y1="628.566" x2="725.671" y2="628.566"/>
<circle fill="#EEEB6A" cx="628.125" cy="628.567" r="4"/>
<line fill="none" stroke="#EEEB6A" stroke-width="1.7104" stroke-linecap="round" stroke-miterlimit="10" x1="642.34" y1="658.566" x2="866.151" y2="658.566"/>
<circle fill="#EEEB6A" cx="753.628" cy="658.567" r="4"/>
<g>
	<text transform="matrix(0.7054 0 0 1 738.4648 631.9023)" fill="#A8C4D9" font-family="'AtlasGrotesk-Regular'" font-size="16">1965 - 1991</text>
</g>
<g>
	<text transform="matrix(0.7054 0 0 1 878.4648 662.4023)" fill="#A8C4D9" font-family="'AtlasGrotesk-Regular'" font-size="16">1992 - 2016</text>
</g>
<circle fill="#669166" cx="759.26" cy="688.567" r="4"/>
<line fill="none" stroke="#669166" stroke-width="1.8393" stroke-linecap="round" stroke-miterlimit="10" x1="680.334" y1="718.566" x2="699.012" y2="718.566"/>
<circle fill="#669166" cx="689.628" cy="718.567" r="4"/>
<line fill="none" stroke="#669166" stroke-width="1.8393" stroke-linecap="round" stroke-miterlimit="10" x1="693.012" y1="748.566" x2="717.012" y2="748.566"/>
<circle fill="#669166" cx="705.628" cy="748.567" r="4"/>
<g>
	<text transform="matrix(0.7054 0 0 1 772.4648 692.4023)" fill="#A8C4D9" font-family="'AtlasGrotesk-Regular'" font-size="16">British Columbia 1991 - 2013</text>
</g>
<g>
	<text transform="matrix(0.7054 0 0 1 710.4648 722.4023)" fill="#A8C4D9" font-family="'AtlasGrotesk-Regular'" font-size="16">Southern Residents 1975 - 2015</text>
</g>
<g>
	<text transform="matrix(0.7054 0 0 1 728.4648 752.4023)" fill="#A8C4D9" font-family="'AtlasGrotesk-Regular'" font-size="16">Northern Residents 1975 - 2014</text>
</g>
<g display="none" opacity="0.5">
	<path display="inline" fill-rule="evenodd" clip-rule="evenodd" fill="#B5B8C0" d="M89.553,180.905c1,0,2,0,3,0
		c1.158,1.479,1.158,2.521,0,4c-2.306,0.306-1.111-2.889-3-3C89.553,181.572,89.553,181.238,89.553,180.905z"/>
	<path display="inline" fill-rule="evenodd" clip-rule="evenodd" fill="#B5B8C0" d="M91.553,195.905c0.934-0.733,1.515-1.818,2-3
		c1.342,0.658,1.862,2.138,2,4c-0.807,0.86-2.739,0.594-3,2c0.869,2.953,1.497-2.32,4-1c0.776,0.89,1.075,2.258,1,4
		c-1.485,2.785-4.468-2.113-4,2c-0.805-0.529-1.623-1.043-3-1c1.926-1.834-0.853-3.386-2-5c-2.729,0.903,3.042,2.237,0,4
		c-2.09,0.424-2.647-0.686-4-1c1.94-4.448,0.925-5.687,2-11c-5.971,2.159,1.269,6.709-3,10c-2.08-2.19-3.232,0.878-5-1
		c-1.191-2.638,4.808-2.579,0-3c1.229-3.138,6.358-2.97,4-7c3.511,0.587,3.289-4.727,6-2
		C85.985,191.382,92.671,188.465,91.553,195.905z"/>
	<path display="inline" fill-rule="evenodd" clip-rule="evenodd" fill="#B5B8C0" d="M56.553,209.905c1.759,0.241,2.279,1.721,2,4
		c-1,0-2,0-3,0C55.129,211.815,56.239,211.258,56.553,209.905z"/>
	<path display="inline" fill-rule="evenodd" clip-rule="evenodd" d="M-1.447,218.905c2,0,4,0,6,0
		C16.224,218.638,0.634,221.759-1.447,218.905z"/>
	<path display="inline" fill-rule="evenodd" clip-rule="evenodd" fill="#020202" d="M45.553,170.905c1.666-2.868,12.744-13.631,17-9
		c-1.419-0.086-2.832-0.165-3,1c-1.711-0.044-2.59,0.743-3,2C51.871,165.89,50.236,169.921,45.553,170.905z"/>
	<path display="inline" fill-rule="evenodd" clip-rule="evenodd" fill="#010101" d="M36.553,173.905c-1.831-2.562,4.336-3.808,8-4
		c-0.19,0.81-1.003,0.997-1,2C40.389,171.741,40.211,174.563,36.553,173.905z"/>
	<path display="inline" fill-rule="evenodd" clip-rule="evenodd" fill="#020202" d="M6.553,183.905c2.282-6.315,23.275-7.086,27-12
		c2.078,0.56,2.119,1.56,1,3c-2.594,1.406-6.614,1.386-9,3c-1.794-0.127-2.109,1.225-4,1c-1.594-0.869-12.494,2.781-12,4
		C9.385,184.07,7.973,183.991,6.553,183.905z"/>
	<path display="inline" fill-rule="evenodd" clip-rule="evenodd" fill="#020202" d="M-31.447,210.905c-0.437-1.484-1.28,0.395-3,0
		c11.39-7.37,23.629-18.91,32-26c2.558-0.044,1.219,0.743,1,2c-4.622,4.045-9.215,8.118-14,12c-3.19,3.144-7.452,5.215-10,9
		c-1.163-0.163-1.779,0.221-2,1c-1.71-0.044-2.59,0.743-3,2C-30.78,210.905-31.113,210.905-31.447,210.905z"/>
	<path display="inline" fill-rule="evenodd" clip-rule="evenodd" fill="#020202" d="M-50.447,221.905c-3.933,2.4-6.067,6.6-10,9
		c7.286-9.417,15.361-16.148,26-20c-0.19,0.81-1.003,0.997-1,2C-40.119,216.232-45.153,219.198-50.447,221.905z"/>
	<path display="inline" fill-rule="evenodd" clip-rule="evenodd" fill="#020202" d="M-63.447,231.905c0.354-1.567,1.761,0.875,2-1
		c3.197,2.62-3.824,3.442-3,7C-68.093,239.624-61.402,231.679-63.447,231.905z"/>
	<path display="inline" fill-rule="evenodd" clip-rule="evenodd" fill="#020202" d="M-53.447,234.905c0.027,0.973,1.224,0.776,2,1
		c0.127,1.794-1.224,2.109-1,4c-1.781-0.733-0.144-1.818,0-3c-6.075-1.083-7.705,10.705-12,5
		C-59.337,241.016-59.183,235.169-53.447,234.905z"/>
	<path display="inline" fill-rule="evenodd" clip-rule="evenodd" fill="#020202" d="M-4.447,225.905c3.061,2.483-1.197,6.069,0,10
		c-0.804-0.529-1.624-1.043-3-1C-6.389,231.963-6.072,228.28-4.447,225.905z"/>
	<path display="inline" fill-rule="evenodd" clip-rule="evenodd" fill="#020202" d="M29.553,224.905c3.316,3.326-8.742,0.269-5-1
		c-3.19-0.594-3.093,1.877-5,0c3.077-5.344-15.008-2.05-23-3c0-0.667,0-1.333,0-2c0.667,0,1.333,0,2,0c2.081,2.854,17.671-0.268,6,0
		C14.628,215.176,23.812,220.971,29.553,224.905z"/>
	<path display="inline" fill-rule="evenodd" clip-rule="evenodd" fill="#020202" d="M38.553,229.905c-0.294,3.484-2.706-0.084-3,2
		c-0.438-1.157-0.955-3.984-5-4c0.19-0.81,1.003-0.997,1-2c3.586-0.253,3.664,3.003,7,3
		C38.553,229.238,38.553,229.572,38.553,229.905z"/>
	<path display="inline" fill-rule="evenodd" clip-rule="evenodd" fill="#010101" d="M70.553,242.905c-0.667,0-1.333,0-2,0
		c0.161,1.172,1.823,0.844,3,1c1.824,0.776-0.599,1.075-2,1c-0.184,0.851,0.39,0.943,1,1c-1.286,2.797-2.067-3.15-5-2
		c0.227-1.44,2.984-0.349,3-2C69.715,241.743,70.333,242.126,70.553,242.905z"/>
	<path display="inline" fill-rule="evenodd" clip-rule="evenodd" fill="#010101" d="M97.553,255.905c6.546,2.249-3.353,3.2-7,4
		c0.19-0.81,1.003-0.997,1-2C92.832,256.518,96.275,257.293,97.553,255.905z"/>
	<path display="inline" fill-rule="evenodd" clip-rule="evenodd" fill="#020202" d="M109.553,248.905c8.166,1.177,5.888,2.888,0,2
		c-3.156,1.844-4.055,5.945-9,6c0.111-1.889,3.306-0.694,3-3C104.924,251.609,107.671,250.69,109.553,248.905z"/>
	<path display="inline" fill-rule="evenodd" clip-rule="evenodd" fill="#020202" d="M140.553,245.905c0.186-1.48,2.417-0.917,4-1
		C160.512,246.962,150.258,248.239,140.553,245.905z"/>
	<path display="inline" fill-rule="evenodd" clip-rule="evenodd" fill="#020202" d="M169.553,233.905c0.027,0.973,1.224,0.776,2,1
		c-1.904,1.177-2.316,2.511,0,4c-0.56,2.896-1.56-1.534-3-1c-1.406-0.261-1.14-2.193-2-3c0.61-0.057,1.184-0.149,1-1
		C168.22,233.905,168.886,233.905,169.553,233.905z"/>
	<path display="inline" fill-rule="evenodd" clip-rule="evenodd" fill="#020202" d="M209.553,209.905c-0.354-1.313-1.761-1.573-2-3
		c2.611-0.783,13.073,12.947,10,10c-2.079-1.994-4.812-6.373-3-2C212.461,213.664,210.794,211.997,209.553,209.905z"/>
	<path display="inline" fill-rule="evenodd" clip-rule="evenodd" fill="#020202" d="M150.553,169.905c0.164-4.636,14.996-0.287,20,0
		c-0.168,1.165-1.581,1.086-3,1c-4.057-0.971-11.943-3.354-16-1C151.22,169.905,150.886,169.905,150.553,169.905z"/>
	<path display="inline" fill-rule="evenodd" clip-rule="evenodd" fill="#020202" d="M106.553,165.905c-0.027-0.973-1.224-0.776-2-1
		c1.725-2.942,10.275,0.942,12-2c-1.33,4.044,4.094,1.364,10,2c3.606-0.409,1.37,1.826-1,1c-2,0-4,0-6,0
		c-1.163-0.162-1.779,0.221-2,1C113.428,167.03,111.292,165.167,106.553,165.905z"/>
	<path display="inline" fill-rule="evenodd" clip-rule="evenodd" fill="#CBCDD2" d="M59.553,162.905c0.555-0.003,1.135,0.81,0,1
		c0.355,1.427,5.096,3.415,6,1c1.208,0.211,0.615,1.109,0,2c2,0,4,0,6,0c-3.025,2.308-10.314,0.353-15,1
		c-0.395-1.721,1.484-2.563,0-3C56.963,163.648,57.842,162.861,59.553,162.905z"/>
	<path display="inline" fill-rule="evenodd" clip-rule="evenodd" fill="#E7E7EA" d="M56.553,164.905c1.484,0.437-0.395,1.279,0,3
		c4.686-0.647,11.975,1.308,15-1c7.267,0.934,9.214-3.453,17-2c7.107-0.774,11.154,1.512,18,1c4.738-0.738,6.875,1.125,11,1
		c7.025-0.691,10.975,1.691,18,1c0.161,1.172,1.823,0.844,3,1c5.118-0.785,7.264,1.402,12,1c0.333,0,0.667,0,1,0
		c4.118-0.785,5.132,1.535,9,1c0.431,2.236,4.929,0.405,7,1c-0.768,1.266-10.402,2.239-12,6c-3.884,0.783-6.184,3.149-9,5
		c0.733,1.78,1.818,0.145,3,0c4.438,0.539,7.969-5.131,10-1c0.522-5.396,11.217-6.797,18-9c-0.125-2.209-4.242-0.425-6-1
		c0.247-1.086,1.988-0.679,2-2c2.071-0.595,6.569,1.236,7-1c1.667,0,3.333,0,5,0c0.027,0.973,1.224,0.776,2,1
		c-4.032,1.871-0.245,5.616-1,10c6.377-0.5,10.473-6.767,13-8c0.333,0,0.667,0,1,0c-0.633,4.967,5.36,3.307,5,8
		c3.522-0.793-3.028-4.7,0-5c3.555-1.555,0.604,3.396,3,3c-0.826,2.826,1.409,2.591,1,5c0,0.667,0,1.333,0,2
		c-5.409,1.924-10.141,4.526-14,8c-4.223,1.111-7.594,3.072-10,6c3.101,0.101,4.777-1.223,7-2c4.183,0.325,7.762-3.509,11-1
		c1.998,2.002,5.079,2.921,6,6c0,0.333,0,0.667,0,1c-7.467-0.467-10.9,3.1-18,3c-0.333,0-0.667,0-1,0c1.331-2.002,4.438-2.228,7-3
		c0.594-1.002,0.904-4.036,3-6c-6.736,3.264-13.324,6.676-19,11c-0.851-0.184-0.943,0.39-1,1c-4.333,0-8.667,0-13,0
		c3.472-4.902,2.323-2.303,7-6c-1.403-4.263-4.18-7.153-7-10c-3.78,0.22-4.856,3.144-8,4c4.135,3.162,0.269,2.199,2,7
		c1.011,1.656,4.247,1.086,6,2c-16.273,8.799-44.821,5.464-62,1c-2.885-1.115-6.2-1.8-10-2c11.278-9.389,24.135-17.198,37-25
		c-3.463-3.383-6.129,3.617-8,0c-1.85,0.15-0.613,3.387-2,4c-3.472-7.765-19.62-1.859-30-3c-1,0-2,0-3,0c-0.333,0-0.667,0-1,0
		c-1.333,0-2.667,0-4,0c-15.286,2.714-37.136-1.136-49,5c-1.27,4.064-4.423,6.243-6,10c-4.062,6.271-7.244,13.423-12,19
		c-1.086,0.247-0.678,1.988-2,2c-2.272-7.061-5.905-12.762-10-18c-0.866-4.134-4.134-5.866-5-10c-1.163-0.162-1.779,0.221-2,1
		c-5.657,2.233-2.49,2.763-1,5c-5.363-5.324-8.409,6.021-13,4c4.785-3.882,9.378-7.955,14-12c2.322-1.345,5.678-1.655,8-3
		c1.419,0.086,2.832,0.165,3-1c2.801-0.532,5.199-1.468,8-2c2.558-0.044,1.219,0.743,1,2c4.321-0.958,7.311-1.706,7-5
		c2.386-1.614,6.406-1.594,9-3c1.162,0.162,1.779-0.221,2-1c3.658,0.658,3.836-2.164,7-2c0.81-0.19,0.997-1.003,2-1
		C50.236,169.921,51.871,165.89,56.553,164.905z M65.553,173.905c1.635-0.729,4.35,1.987,2,2c-5.514-4.854-17.146,4.136-20,5
		c6.577-0.756,13.273-1.394,16-6c-3.424,5.528,9.137,2.38,10,0c-1.656,0.428,0.089-3.729,1-4c1.991,3.302,4.271-2.479,5,0
		c0.075,1.742-0.224,3.11-1,4c2.48,0.147,4.853,0.187,5-2c-2.055-0.279-1.996-2.671-3-4c1.485-2.785,4.468,2.113,4-2
		C77.43,169.352,72.211,169.77,65.553,173.905z M12.553,200.905c4.051,1.483,0.373,3.196,6,5c-0.043-1.377,0.471-2.195,1-3
		c-2.097-1.166-0.155-1.387-4-4c0.555,0.003,1.135-0.81,0-1C15.859,200.211,12.664,199.017,12.553,200.905z"/>
	<path display="inline" fill-rule="evenodd" clip-rule="evenodd" fill="#CBCDD2" d="M173.553,169.905c-0.012,1.321-1.753,0.914-2,2
		c1.758,0.575,5.875-1.209,6,1c-6.783,2.203-17.478,3.604-18,9c-2.031-4.131-5.562,1.539-10,1c1.621-3.807,10.583-2.415,6-5
		c1.598-3.761,11.232-4.734,12-6c-2.071-0.595-6.569,1.236-7-1c2.333,0,4.667,0,7,0c1.419,0.086,2.832,0.165,3-1
		c0.333,0,0.667,0,1,0C172.22,169.905,172.886,169.905,173.553,169.905z"/>
	<path display="inline" fill-rule="evenodd" clip-rule="evenodd" fill="#CBCDD2" d="M205.553,174.905c-3.028,0.3,3.522,4.207,0,5
		c0.36-4.693-5.633-3.033-5-8c0.804,0.529,1.623,1.043,3,1c0.221,0.779,0.838,1.162,2,1
		C205.553,174.238,205.553,174.572,205.553,174.905z"/>
	<path display="inline" fill-rule="evenodd" clip-rule="evenodd" fill="#CBCDD2" d="M195.553,192.905c3.859-3.474,8.591-6.076,14-8
		c0-0.667,0-1.333,0-2c2.169-0.169,0.453,3.547,1,5c0,1.667,0,3.333,0,5c-2.468,0.865-6.923-0.256-7,3
		c-3.238-2.509-6.817,1.325-11,1c2.073-1.26,4.077-2.59,5-5C196.744,192.096,196.556,192.908,195.553,192.905z"/>
	<path display="inline" fill-rule="evenodd" clip-rule="evenodd" fill="#B5B8C0" d="M209.553,201.905c-0.921-3.079-4.002-3.998-6-6
		c0.077-3.256,4.532-2.135,7-3c0-1.667,0-3.333,0-5c1.357,0.31,0.83,2.504,1,4c0.847,1.486,3.22,1.447,5,2
		c-0.454,4.213-4.729,4.604-6,8C210.22,201.905,209.886,201.905,209.553,201.905z M209.553,198.905c1.676,2.451,6.639-3.355,5-4
		C213.271,196.623,209.792,196.145,209.553,198.905z"/>
	<path display="inline" fill-rule="evenodd" clip-rule="evenodd" fill="#CBCDD2" d="M181.553,207.905
		c5.676-4.324,12.264-7.736,19-11c-2.096,1.964-2.406,4.998-3,6c-2.562,0.772-5.669,0.998-7,3
		C188.384,207.403,184.924,207.61,181.553,207.905z"/>
	<path display="inline" fill-rule="evenodd" clip-rule="evenodd" fill="#CBCDD2" d="M105.553,206.905
		c17.179,4.464,45.727,7.799,62-1c-1.753-0.914-4.989-0.344-6-2c-1.731-4.801,2.135-3.838-2-7c3.144-0.856,4.22-3.78,8-4
		c2.82,2.847,5.597,5.737,7,10c-4.677,3.697-3.528,1.098-7,6c4.333,0,8.667,0,13,0c-1.77,2.563-0.738,7.928-3,10
		c0-0.667,0-1.333,0-2c-0.578,3.46-6.79,6.492-5,9c-1.755,0.966-2.075-1.596-5,1c0.776-0.89,1.075-2.258,1-4
		c-3.363-0.696-3.277,2.056-5,3c0.851-0.184,0.943,0.39,1,1c1.017-0.649,1.034-2.299,3-2c-2.713,3.213,2.613,4.791,6,5
		c-0.615,0.891-1.209,1.788,0,2c-0.15,1.85-3.387,0.613-4,2c-0.667,0-1.333,0-2,0c-4.3,0.261,0.283-2.261,2-2
		c0.003-1.003-0.81-1.19-1-2c-2.593-1.729-9.919-5.61-15-8c-3.821-0.512-5.379-3.287-9-4c0-1.333,0-2.667,0-4
		c-2.007-0.34-3.129,0.204-3,2c-1.475-1.45-6.546-1.47-4-4c-3.078,0.7-1.922,0.7-5,0c-0.333,0-0.667,0-1,0
		c-3.118,2.737,1.921,22.526-4,16c3.927,2.688,1.184-8.403,2-12c-1.887,1.779-0.738,6.595-5,6c0.013,1.987,2.729,1.271,2,4
		c-1.882-0.53-4.629-5.265-6-3c-3.511,0.178-3.289-3.378-6-4c-2.092,1.241-3.759,2.908-5,5c-2.889,1.445-3.858,4.809-6,7
		c-1.003-0.003-1.19,0.81-2,1c-1.333,0-2.667,0-4,0c4.1-2.062-1.192-10.926,3-16c1.661,3.397,5.727-3.253,2-2
		c2.772-0.933,6.615,4.801,9-4C111.198,207.261,106.458,209.001,105.553,206.905z M170.553,202.905c0-2,0-4,0-6
		c-1.667,0-3.333,0-5,0C164.963,201.161,165.883,203.908,170.553,202.905z"/>
	<path display="inline" fill-rule="evenodd" clip-rule="evenodd" fill="#CBCDD2" d="M92.553,180.905c10.38,1.141,26.528-4.765,30,3
		c1.387-0.613,0.15-3.85,2-4c1.871,3.617,4.537-3.383,8,0c-12.865,7.802-25.722,15.611-37,25c-0.333,0-0.667,0-1,0
		c-12.549,10.784-25.879,20.787-37,33c-0.667,0-1.333,0-2,0c-0.61-0.057-1.184-0.149-1-1c-3.006-8.551-6.791-27.042-11-39
		c-1.242-3.528-5.649-13.106-8-12c11.864-6.136,33.714-2.286,49-5c-10.576,0.411-0.257,3.756-8,7c0.898-0.06,2.414,2.231,3,1
		c3.781,2.032-3.446,2.864-4,1c-0.422-3.422,2.995-3.005,4-5c-2.083-3.697-4.218,3.037-6,0c0,1.333,0,2.667,0,4
		c-3.578-0.454-6.354,3.167-7,0c-2.396-0.396,0.555,4.555-3,3c2.785,2.882,7.147,4.187,12,5c2.231-0.147-1.298-2.52,0-5
		c2.217-0.551,1.424,1.909,3,2c4.423-5.466,5.836-8.069,10-13c0.333,0,0.667,0,1,0c0,0.333,0,0.667,0,1c1.889,0.111,0.694,3.306,3,3
		C93.711,183.426,93.711,182.385,92.553,180.905z M88.553,186.905c-2.711-2.727-2.489,2.587-6,2c2.358,4.03-2.771,3.862-4,7
		c4.808,0.421-1.191,0.362,0,3c1.768,1.878,2.92-1.19,5,1c4.269-3.291-2.971-7.841,3-10c-1.075,5.313-0.06,6.552-2,11
		c1.353,0.314,1.91,1.424,4,1c3.042-1.763-2.729-3.097,0-4c1.147,1.614,3.926,3.166,2,5c1.377-0.043,2.195,0.471,3,1
		c-0.468-4.113,2.515,0.785,4-2c0.075-1.742-0.224-3.11-1-4c-2.503-1.32-3.131,3.953-4,1c0.261-1.406,2.193-1.14,3-2
		c-0.138-1.862-0.658-3.342-2-4c-0.485,1.182-1.066,2.267-2,3C92.671,188.465,85.985,191.382,88.553,186.905z M55.553,213.905
		c1,0,2,0,3,0c0.279-2.279-0.241-3.759-2-4C56.239,211.258,55.129,211.815,55.553,213.905z"/>
	<path display="inline" fill-rule="evenodd" clip-rule="evenodd" fill="#CBCDD2" d="M5.553,198.905c4.095,5.238,7.728,10.939,10,18
		c-1.667,0-3.333,0-5,0c0.39-1.427,1.2-1.687,0-3c-3.056-0.723-3.644,1.022-6,1c0.914-1.753,1.859-3.475,5-3
		C5.071,207.407,10.229,204.151,5.553,198.905z"/>
	<path display="inline" fill-rule="evenodd" clip-rule="evenodd" fill="#CBCDD2" d="M25.553,177.905c0.311,3.294-2.679,4.042-7,5
		c0.219-1.257,1.558-2.044-1-2c0.15-1.85,3.386-0.613,4-2C23.444,179.13,23.759,177.778,25.553,177.905z"/>
	<path display="inline" fill-rule="evenodd" clip-rule="evenodd" fill="#020202" d="M135.553,167.905c0.973-0.027,0.776-1.224,1-2
		c9.886,0.418,18.994,3.738,1,1c0.19,0.81,1.003,0.997,1,2C137.376,168.749,135.714,169.077,135.553,167.905z"/>
	<path display="inline" fill-rule="evenodd" clip-rule="evenodd" fill="#CBCDD2" d="M84.553,166.905c0.468,4.113-2.515-0.785-4,2
		c1.004,1.329,0.945,3.721,3,4c-0.147,2.187-2.52,2.147-5,2c0.776-0.89,1.075-2.258,1-4c-0.729-2.479-3.009,3.302-5,0
		c-0.911,0.271-2.656,4.428-1,4c-0.863,2.38-13.424,5.528-10,0c-2.727,4.606-9.423,5.244-16,6c2.854-0.864,14.486-9.854,20-5
		c2.35-0.013-0.365-2.729-2-2C72.211,169.77,77.43,169.352,84.553,166.905z"/>
	<path display="inline" fill-rule="evenodd" clip-rule="evenodd" d="M151.553,169.905c4.057-2.354,11.943,0.029,16,1
		c-2.333,0-4.667,0-7,0C156.685,171.44,155.671,169.12,151.553,169.905z"/>
	<path display="inline" fill-rule="evenodd" clip-rule="evenodd" d="M9.553,182.905c-0.494-1.219,10.406-4.869,12-4
		c-0.614,1.387-3.85,0.15-4,2C14.752,181.438,12.354,182.373,9.553,182.905z"/>
	<path display="inline" fill-rule="evenodd" clip-rule="evenodd" fill="#B5B8C0" d="M149.553,182.905c-1.182,0.145-2.267,1.78-3,0
		c2.816-1.851,5.116-4.217,9-5C160.136,180.49,151.174,179.099,149.553,182.905z"/>
	<path display="inline" fill-rule="evenodd" clip-rule="evenodd" fill="#B5B8C0" d="M84.553,180.905c1.333,0,2.667,0,4,0
		c-4.164,4.931-5.577,7.534-10,13c-1.576-0.091-0.783-2.551-3-2c-1.298,2.48,2.231,4.853,0,5c-4.853-0.813-9.215-2.118-12-5
		c3.555,1.555,0.604-3.396,3-3c0.646,3.167,3.422-0.454,7,0c0-1.333,0-2.667,0-4c1.782,3.037,3.917-3.697,6,0
		c-1.005,1.995-4.422,1.578-4,5c0.554,1.864,7.781,1.032,4-1c-0.586,1.231-2.102-1.06-3-1
		C84.296,184.661,73.977,181.316,84.553,180.905z"/>
	<path display="inline" fill-rule="evenodd" clip-rule="evenodd" fill="#A0A3AF" d="M57.553,237.905
		c11.121-12.213,24.451-22.216,37-33c-0.489,3.156,1.802,3.531,1,7c1.017-0.649,1.034-2.299,3-2c-2.423,4.107-3.191,3.966-6,8
		c1.499,3.35,5.004,0.891,5,4c-3.133-1.117-5.522,0.999-7-3c-1.258,0.247-1.009,1.988,0,2c-0.733,1.78-1.818,0.145-3,0
		c-1.427,2.97,3.384,6.22,3,2c3.065,0.981-1.149,2.668-1,4c-1.23-0.437-2.054-1.279-2-3c-3.568,0.848-0.12,2.463-1,6
		c-2.263-2.278-4.397,0.678-6,2c-3.044-5.422-1.286,1.743-6,0c-0.146-0.054-2.197-2.797-2-3c-0.412,0.426,0.476,7.886,7,6
		c-0.057,0.61-0.149,1.184-1,1C70.508,235.527,64.694,237.38,57.553,237.905z"/>
	<path display="inline" fill-rule="evenodd" clip-rule="evenodd" fill="#B5B8C0" d="M35.553,185.905c2.351-1.106,6.758,8.472,8,12
		c4.209,11.958,7.994,30.449,11,39c-5.681-1.652-9.878-4.789-15-7c-0.333,0-0.667,0-1,0c0-0.333,0-0.667,0-1
		c-3.336,0.003-3.414-3.253-7-3c-0.81-0.19-0.997-1.003-2-1c-5.741-3.935-14.925-9.729-25-6c-2,0-4,0-6,0c-0.667,0-1.333,0-2,0
		s-1.333,0-2,0c0-0.333,0-0.667,0-1c3.203-7.464,3.052-18.281,4-28c0.221-0.779,0.837-1.162,2-1c0.866,4.134,4.134,5.866,5,10
		c4.676,5.246-0.482,8.502,4,13c-3.141-0.475-4.086,1.247-5,3c2.356,0.022,2.944-1.723,6-1c1.2,1.313,0.39,1.573,0,3
		c1.667,0,3.333,0,5,0c1.322-0.012,0.914-1.753,2-2c-0.551,2.217,1.91,1.424,2,3c2.168,0.169,0.453-3.547,1-5
		c1.889,0.111,0.694,3.306,3,3c1.158-0.493-1.179-5.228,4-4c0.428-1.611-3.728-3.355-4-1c-0.529,1.539-1.043,0.063-1-1
		c9.979-0.765,12.07-5.787,15-7c-0.847-2.931-3.22,0.598-5,0c0.776-0.89,1.075-2.258,1-4c0.881,3.449,4.961-1.192,5,4
		c1.329-1.004,3.721-0.945,4-3c-0.57-2.763-1.059-5.607-5-5c-0.616-3.213,3.6-1.37,1-4c-3.15,1.997-4.707,2.632-9,5
		C31.13,192.148,34.284,189.97,35.553,185.905z M34.553,207.905c1.817,2.412,4.841,6.401,2,7c-0.418,3.418,0.302,5.698,4,5
		c3.3-7.655-3.147-10.001,2-15C38.533,205.251,38.957,210.637,34.553,207.905z"/>
	<path display="inline" fill-rule="evenodd" clip-rule="evenodd" fill="#A0A3AF" d="M29.553,195.905c4.293-2.368,5.85-3.003,9-5
		c2.6,2.63-1.616,0.787-1,4c3.941-0.607,4.43,2.237,5,5c-0.279,2.055-2.671,1.996-4,3c-0.039-5.192-4.119-0.551-5-4
		c0.075,1.742-0.224,3.11-1,4c1.78,0.598,4.153-2.931,5,0c-2.93,1.213-5.021,6.235-15,7c-0.043,1.063,0.471,2.539,1,1
		c0.272-2.355,4.428-0.611,4,1c-5.179-1.228-2.842,3.507-4,4c-2.306,0.306-1.111-2.889-3-3c-0.547,1.453,1.168,5.169-1,5
		c-0.09-1.576-2.551-0.783-2-3C22.309,209.328,25.492,202.177,29.553,195.905z"/>
	<path display="inline" fill-rule="evenodd" clip-rule="evenodd" fill="#B5B8C0" d="M195.553,192.905c1.003,0.003,1.19-0.81,2-1
		c-0.923,2.41-2.927,3.74-5,5c-2.223,0.777-3.899,2.101-7,2C187.959,195.978,191.331,194.017,195.553,192.905z"/>
	<path display="inline" fill-rule="evenodd" clip-rule="evenodd" fill="#CBCDD2" d="M214.553,194.905c1.639,0.645-3.324,6.451-5,4
		C209.792,196.145,213.271,196.623,214.553,194.905z"/>
	<path display="inline" fill-rule="evenodd" clip-rule="evenodd" fill="#898D99" d="M216.553,193.905c2.092,0.908,3.049,2.951,3,6
		c-3.658-0.658-3.836,2.164-7,2c-0.667,0-1.333,0-2,0C211.824,198.509,216.099,198.118,216.553,193.905z"/>
	<path display="inline" fill-rule="evenodd" clip-rule="evenodd" fill="#CBCDD2" d="M15.553,197.905c1.135,0.19,0.555,1.003,0,1
		c3.845,2.613,1.903,2.834,4,4c-0.529,0.805-1.043,1.623-1,3c-5.627-1.804-1.949-3.517-6-5
		C12.664,199.017,15.859,200.211,15.553,197.905z"/>
	<path display="inline" fill-rule="evenodd" clip-rule="evenodd" fill="#747887" d="M165.553,196.905c1.667,0,3.333,0,5,0
		c0,2,0,4,0,6C165.883,203.908,164.963,201.161,165.553,196.905z"/>
	<path display="inline" fill-rule="evenodd" clip-rule="evenodd" fill="#E7E7EA" d="M177.553,218.905c-1.316,3.684-2.26,7.74-2,13
		c-0.667,0-1.333,0-2,0c-1.209-0.212-0.615-1.109,0-2c-3.387-0.209-8.713-1.787-6-5c-1.966-0.299-1.983,1.351-3,2
		c-0.057-0.61-0.149-1.184-1-1c1.723-0.944,1.637-3.696,5-3c0.075,1.742-0.224,3.11-1,4c2.925-2.596,3.245-0.034,5-1
		c-1.79-2.508,4.422-5.54,5-9C177.553,217.572,177.553,218.238,177.553,218.905z"/>
	<path display="inline" fill-rule="evenodd" clip-rule="evenodd" fill="#B5B8C0" d="M130.553,239.905c-0.58-3.246,0.681-4.652,1-7
		c1.776,1.658,7.327,1.451,7-2c2.934,0.85-1.301,2.517,0,5c3.14,0.493,2.642-3.447,5-1c1.509-0.869-0.275-1.497,1-4
		c3.102,2.774,0.887,4.678-1,7c0.507,0.115,7.738-1.552,7-6c2.304,1.804,5.078-2.326,7-4c-0.294-2.333-2.706-2.333-3,0
		c-2.341-0.257-0.576-4.394,0-5c-2.078,1.119-2.119,1.078-1-1c5.081,2.39,12.407,6.271,15,8c0.19,0.81,1.003,0.997,1,2
		c-1.717-0.261-6.3,2.261-2,2c0.184,0.851-0.39,0.943-1,1c-0.851-0.184-0.943,0.39-1,1c-3.146-0.479-3.909,1.424-6,2
		c-4.364,0.302-8.294,1.04-11,3c-4.357,1.643-9.584,2.416-13,5c-0.333,0-0.667,0-1,0c-1.772-0.228-5.008,1.008-4-2
		C128.887,241.918,130.644,242.634,130.553,239.905z"/>
	<path display="inline" fill-rule="evenodd" clip-rule="evenodd" fill="#B5B8C0" d="M132.553,211.905c3.078,0.7,1.922,0.7,5,0
		c-2.546,2.53,2.525,2.55,4,4c-0.129-1.796,0.993-2.34,3-2c0,1.333,0,2.667,0,4C140.349,216.109,135.746,214.713,132.553,211.905z"
		/>
	<path display="inline" fill-rule="evenodd" clip-rule="evenodd" fill="#A0A3AF" d="M42.553,204.905c-5.147,4.999,1.3,7.345-2,15
		c-3.698,0.698-4.418-1.582-4-5c2.841-0.599-0.183-4.588-2-7C38.957,210.637,38.533,205.251,42.553,204.905z"/>
	<path display="inline" fill-rule="evenodd" clip-rule="evenodd" fill="#B5B8C0" d="M94.553,204.905c0.333,0,0.667,0,1,0
		c3.8,0.2,7.115,0.885,10,2c0.904,2.096,5.645,0.355,6,3c-2.385,8.801-6.228,3.067-9,4c3.727-1.253-0.339,5.397-2,2
		c-4.192,5.074,1.1,13.938-3,16c1.333,0,2.667,0,4,0c0,0.333,0,0.667,0,1c-0.333,0-0.667,0-1,0c-3.801,1.866-11.558-0.224-15,2
		c-2,0-4,0-6,0c-6.524,1.886-7.412-5.574-7-6c-0.197,0.203,1.854,2.946,2,3c4.714,1.743,2.956-5.422,6,0
		c1.603-1.322,3.737-4.278,6-2c0.88-3.537-2.568-5.152,1-6c-0.054,1.721,0.77,2.563,2,3c-0.149-1.332,4.065-3.019,1-4
		c0.384,4.22-4.427,0.97-3-2c1.182,0.145,2.267,1.78,3,0c-1.009-0.012-1.258-1.753,0-2c1.478,3.999,3.867,1.883,7,3
		c0.004-3.109-3.501-0.65-5-4c2.809-4.034,3.577-3.893,6-8c-1.966-0.299-1.983,1.351-3,2
		C96.355,208.437,94.064,208.062,94.553,204.905z"/>
	<path display="inline" fill-rule="evenodd" clip-rule="evenodd" fill="#222325" d="M205.553,206.905c-1.352-0.314-1.91-1.424-4-1
		c-6.804,0.623-4.163,4.508,0,6c0.184,0.851-0.39,0.943-1,1c-1.768-0.898-2.92-2.414-5-3c-0.733-0.934-1.818-1.515-3-2
		c-0.19-0.81-1.003-0.997-1-2c7.1,0.1,10.533-3.467,18-3c0-0.333,0-0.667,0-1c0.333,0,0.667,0,1,0c0.667,0,1.333,0,2,0
		C211.555,204.907,205.394,202.746,205.553,206.905z"/>
	<path display="inline" fill-rule="evenodd" clip-rule="evenodd" fill="#747887" d="M201.553,205.905c2.09-0.424,2.648,0.686,4,1
		c1.44,0.56,2.44,1.56,3,3c-3.065,0.981,1.149,2.668,1,4c-1.313-1.2-1.573-0.39-3,0
		C205.286,210.839,203.148,208.644,201.553,205.905z"/>
	<path display="inline" fill-rule="evenodd" clip-rule="evenodd" fill="#A0A3AF" d="M191.553,211.905c0-0.667,0-1.333,0-2
		c0.851-0.184,0.943,0.39,1,1c3.529-0.294-3.529-2.706,0-3c1.182,0.485,2.267,1.066,3,2c-2.378,0.294,1.111,2.706,2,3
		c-0.057,0.61-0.149,1.184-1,1c-2.409,0.409-2.174-1.826-5-1C191.553,212.572,191.553,212.238,191.553,211.905z"/>
	<path display="inline" fill-rule="evenodd" clip-rule="evenodd" fill="#898D99" d="M181.553,207.905c3.371-0.295,6.831-0.502,9-2
		c0.333,0,0.667,0,1,0c-0.003,1.003,0.81,1.19,1,2c-3.529,0.294,3.529,2.706,0,3c-0.057-0.61-0.149-1.184-1-1c0,0.667,0,1.333,0,2
		c-3.087-0.246-5.652-1.014-8-2c-0.221-0.779-0.838-1.163-2-1C181.553,208.572,181.553,208.238,181.553,207.905z"/>
	<path display="inline" fill-rule="evenodd" clip-rule="evenodd" fill="#86665C" d="M201.553,205.905c1.595,2.738,3.732,4.934,5,8
		c0.354,1.313,1.761,1.573,2,3c-0.333,0-0.667,0-1,0c-1.848-4.056-3.023-2.838-6-5C197.39,210.413,194.75,206.528,201.553,205.905z"
		/>
	<path display="inline" fill-rule="evenodd" clip-rule="evenodd" fill="#A0A3AF" d="M127.553,227.905c5.921,6.526,0.882-13.263,4-16
		c0.333,0,0.667,0,1,0c3.192,2.808,7.796,4.204,12,6c3.621,0.713,5.179,3.488,9,4c-1.119,2.078-1.078,2.119,1,1
		c-0.576,0.606-2.341,4.743,0,5c0.294-2.333,2.706-2.333,3,0c-1.922,1.674-4.696,5.804-7,4c0.738,4.448-6.493,6.115-7,6
		c1.887-2.322,4.102-4.226,1-7c-1.275,2.503,0.509,3.131-1,4c-2.358-2.447-1.86,1.493-5,1c-1.301-2.483,2.934-4.15,0-5
		c0.327,3.451-5.224,3.658-7,2c-0.319,2.348-1.58,3.754-1,7c-1.954-3.783-1.261-8.417,2-9c-3.385-1.021-8.35,4.962-11,8
		c-1.556-0.261-0.693-2.193,0-3c-1.975,0.691-2.666,2.667-3,5c-1.267-1.733-3.38-2.62-3-6c3.311,0.646,4.354,2.02,3-2
		c0.613,1.387,3.85,0.15,4,2c-0.053-1.725,0.721-5.912,4-7C126.886,227.905,127.22,227.905,127.553,227.905z"/>
	<path display="inline" fill-rule="evenodd" clip-rule="evenodd" fill="#E7E7EA" d="M120.553,222.905c1.371-2.265,4.118,2.47,6,3
		c0.729-2.729-1.987-2.013-2-4c4.262,0.595,3.113-4.221,5-6c-0.816,3.597,1.927,14.688-2,12c-0.333,0-0.667,0-1,0
		c-1.614-1.386-3.166-2.834-5-4C121.737,223.055,121.164,222.962,120.553,222.905z"/>
	<path display="inline" fill-rule="evenodd" clip-rule="evenodd" fill="#B5B8C0" d="M121.553,223.905c-3.541,0.125-5.691,1.643-8,3
		c-2.487-0.154-3.096,1.571-5,2c-0.667,0-1.333,0-2,0c0.802-1.293,5.068-4.138,3-5c1.241-2.092,2.908-3.759,5-5
		c2.711,0.622,2.489,4.178,6,4C121.164,222.962,121.737,223.055,121.553,223.905z"/>
	<path display="inline" fill-rule="evenodd" clip-rule="evenodd" fill="#CBCDD2" d="M182.553,228.905c-2.826,0.826-2.591-1.409-5-1
		c1.701-3.965,6.182-5.151,10-7c0.306-2.031-2.889,0.205-3,1c-1.788,0.296-0.062-3.88,2-3c-1.448-2.885-2.732-5.935-5-8
		c0.221-0.779,0.838-1.163,2-1c2.348,0.986,4.913,1.754,8,2c0,0.333,0,0.667,0,1c2.826-0.826,2.591,1.409,5,1
		c0.247,1.086,1.988,0.679,2,2c-4.293,0.701-4.492,7.414-9,5c2.103,2.436-1.584,5.144,2,5c-0.844,2.156-5.156,0.844-6,3
		C184.553,228.905,183.553,228.905,182.553,228.905z"/>
	<path display="inline" fill-rule="evenodd" clip-rule="evenodd" fill="#B5B8C0" d="M183.553,209.905c-1.162-0.163-1.779,0.221-2,1
		c2.268,2.065,3.552,5.115,5,8c-2.062-0.88-3.788,3.296-2,3c0.111-0.795,3.306-3.031,3-1c-3.818,1.849-8.299,3.035-10,7
		c2.409-0.409,2.174,1.826,5,1c-0.15,1.85-3.387,0.613-4,2c-0.804,0.529-1.623,1.043-3,1c-0.26-5.26,0.684-9.316,2-13
		c2.262-2.072,1.23-7.437,3-10c0.057-0.61,0.149-1.184,1-1c0,0.333,0,0.667,0,1C182.715,208.742,183.333,209.126,183.553,209.905z"
		/>
	<path display="inline" fill-rule="evenodd" clip-rule="evenodd" fill="#747887" d="M-19.447,211.905c5.265,1.402,8.825,4.508,14,6
		c0,0.333,0,0.667,0,1c-2.428-2.737-9.706,2.012-7-2c-1.003-0.003-1.19,0.81-2,1c-1.115,0.914-0.315,1.859-1,5
		c-5.571-0.963-9.222,5.219-17,5c-0.409-2.409,1.826-2.174,1-5c0.333,0,0.667,0,1,0c0,1,0,2,0,3c1.567-2.433,6.608-1.392,6-6
		c2.09-0.424,2.648,0.686,4,1c0.934-0.566,1.515-2.78,2-1c1.85-0.15,0.614-3.387,2-4c-3.141-0.475-4.086,1.247-5,3
		C-24.93,216.316-17.196,216.568-19.447,211.905z"/>
	<path display="inline" fill-rule="evenodd" clip-rule="evenodd" fill="#A0A3AF" d="M-31.447,222.905c-0.333,0-0.667,0-1,0
		c0.268-5.039,3.64-7.958,2-12c0.41-1.257,1.29-2.044,3-2c0.333,0,0.667,0,1,0c-1.079,4.921-4.052,7.947-4,14
		C-30.78,222.905-31.113,222.905-31.447,222.905z"/>
	<path display="inline" fill-rule="evenodd" clip-rule="evenodd" fill="#B5B8C0" d="M196.553,213.905c0.851,0.184,0.943-0.39,1-1
		c-0.889-0.294-4.378-2.706-2-3c2.08,0.586,3.232,2.102,5,3c-0.729,2.729,1.987,2.013,2,4c1.667,0,3.333,0,5,0c0.333,0,0.667,0,1,0
		c0.274,0.908,3.726,3.358,4,1c2.007,0.34,3.129-0.204,3-2c2.363,2.107-2.03,5.912-4,7c2.6-2.63-1.616-0.787-1-4
		c-1.398,3.096-3.701,1.244-6,0c-3.159,1.508-3.928,5.406-9,5c0.027,0.973,1.224,0.776,2,1c0.169,2.169-3.547,0.453-5,1
		c1.91-4.09,6.687-5.313,9-9c-0.168-1.165-1.581-1.086-3-1C198.542,214.584,196.8,214.991,196.553,213.905z"/>
	<path display="inline" fill-rule="evenodd" clip-rule="evenodd" fill="#898D99" d="M206.553,213.905c1.427-0.39,1.687-1.2,3,0
		c0.294,2.039,2.706,1.961,3,4c-0.274,2.358-3.726-0.092-4-1C208.314,215.479,206.907,215.219,206.553,213.905z"/>
	<path display="inline" fill-rule="evenodd" clip-rule="evenodd" fill="#CBCDD2" d="M209.553,213.905c0.149-1.332-4.065-3.019-1-4
		c0.333,0,0.667,0,1,0c1.241,2.092,2.908,3.759,5,5c-0.184,0.851,0.39,0.943,1,1c0.129,1.796-0.993,2.34-3,2
		C212.259,215.866,209.847,215.944,209.553,213.905z"/>
	<path display="inline" fill-rule="evenodd" clip-rule="evenodd" fill="#E7E7EA" d="M-32.447,211.905
		c-2.257,3.756-11.41,9.247-17,13c-0.003-1.003,0.81-1.19,1-2c-0.333,1.811-10.154,11.681-9,8c1.734-3.6,4.817-5.85,7-9
		c5.293-2.707,10.328-5.673,15-9C-33.832,213.187-33.725,211.96-32.447,211.905z"/>
	<path display="inline" fill-rule="evenodd" clip-rule="evenodd" fill="#898D99" d="M-32.447,227.905c7.778,0.219,11.429-5.963,17-5
		c0.685-3.141-0.115-4.086,1-5c0.81-0.19,0.997-1.003,2-1c-2.706,4.012,4.572-0.737,7,2c0.667,0,1.333,0,2,0c0,0.667,0,1.333,0,2
		c0.184,0.851-0.39,0.943-1,1c-0.451-3.82-9.016-0.088-7,4c-5.593,0.108-7.3,4.85-13,8c-4.207-0.127-4.793-3.873-9-4
		C-33.45,228.902-32.637,228.715-32.447,227.905z"/>
	<path display="inline" fill-rule="evenodd" clip-rule="evenodd" fill="#898D99" d="M126.553,227.905c-3.279,1.088-4.053,5.275-4,7
		c-0.15-1.85-3.387-0.613-4-2c1.354,4.02,0.311,2.646-3,2c-0.38,3.38,1.733,4.267,3,6c0.334-2.333,1.025-4.309,3-5
		c-0.693,0.807-1.556,2.739,0,3c2.65-3.038,7.615-9.021,11-8c-3.261,0.583-3.954,5.217-2,9c0.091,2.729-1.666,2.013,0,4
		c-0.973,0.027-0.776,1.224-1,2c-1.772-0.228-5.008,1.008-4-2c-5.312,3.178-0.494,3.303,5,3c-0.31,1.357-2.504,0.83-4,1
		c-2.333,0-4.667,0-7,0c-2.631,1.035-6.137,1.196-10,1c-1.882,1.785-4.629,2.704-6,5c-0.81,0.19-0.997,1.003-2,1
		c-0.04-4.96-10.384,0.384-12-3c5.145,1.549,7.859-2.64,10-1c-2.228-3.555,4.14-7.778,7-6c1.758-2.428-1.235-6.557,4-7
		c0.155-2.822-2.827-2.507-4-4c2.277-2.39,4.217-5.117,7-7c2.309-1.357,4.459-2.875,8-3
		C123.387,225.071,124.939,226.52,126.553,227.905z"/>
	<path display="inline" fill-rule="evenodd" clip-rule="evenodd" fill="#B5B8C0" d="M-57.447,230.905c-1.154,3.681,8.667-6.189,9-8
		c-0.19,0.81-1.003,0.997-1,2c5.59-3.753,14.743-9.244,17-13c-0.184-0.851,0.39-0.943,1-1c0.333,0,0.667,0,1,0
		c1.64,4.042-1.732,6.961-2,12c0.333,0,0.667,0,1,0c0.826,2.826-1.409,2.591-1,5c-0.19,0.81-1.003,0.997-1,2
		c-1.786,1.214-5.817,0.183-7,2c-4.811,0.522-8.536,2.131-13,3c-5.736,0.264-5.89,6.11-11,7
		C-63.561,236.791-61.434,232.918-57.447,230.905z"/>
	<path display="inline" fill-rule="evenodd" clip-rule="evenodd" fill="#A0A3AF" d="M109.553,223.905c2.068,0.862-2.198,3.707-3,5
		c0.667,0,1.333,0,2,0c-0.848,1.486-3.22,1.447-5,2C105.695,228.714,106.665,225.351,109.553,223.905z"/>
	<path display="inline" fill-rule="evenodd" clip-rule="evenodd" fill="#747887" d="M101.553,232.905c0-0.333,0-0.667,0-1
		c0.81-0.19,0.997-1.003,2-1c1.78-0.553,4.152-0.514,5-2c1.904-0.429,2.513-2.154,5-2c-2.783,1.883-4.723,4.61-7,7
		c1.173,1.493,4.155,1.178,4,4c-5.235,0.443-2.242,4.572-4,7c-2.86-1.778-9.228,2.445-7,6c-2.141-1.64-4.855,2.549-10,1
		c-0.667,0-1.333,0-2,0c0.184-0.851-0.39-0.943-1-1c0.013-1.987,2.729-1.271,2-4c5.32,0.654,4.749-4.584,8-6
		c-0.294-3.529-2.706,3.529-3,0c-2.188-1.117,1.895,0.215,3-2c2.402-0.932,2.647-4.019,7-3
		C104.104,233.688,101.644,234.481,101.553,232.905z"/>
	<path display="inline" fill-rule="evenodd" clip-rule="evenodd" fill="#020202" d="M57.553,238.905c-1.902,4.65-13.302-5.604-19-7
		c0.19-0.81,1.003-0.997,1-2c5.122,2.211,9.319,5.348,15,7c-0.184,0.851,0.39,0.943,1,1
		C55.581,238.878,56.777,238.682,57.553,238.905z"/>
	<path display="inline" fill-rule="evenodd" clip-rule="evenodd" fill="#020202" d="M178.553,230.905c0.613-1.387,3.85-0.15,4-2
		c1,0,2,0,3,0c-0.184,0.851,0.39,0.943,1,1C185.689,231.649,175.72,234.779,178.553,230.905z"/>
	<path display="inline" fill-rule="evenodd" clip-rule="evenodd" fill="#020202" d="M-33.447,229.905c4.207,0.127,4.793,3.873,9,4
		c0.299,2.7,4.207,1.793,5,4c0.529,0.805,1.043,1.623,1,3c-2.473-2.596-3.91-0.021-5-4c-1.017,0.649-1.034,2.299-3,2
		c1.812-7.029-8.333-5.729-14-7C-39.264,230.088-35.233,231.119-33.447,229.905z"/>
	<path display="inline" fill-rule="evenodd" clip-rule="evenodd" fill="#626571" d="M100.553,232.905c0.333,0,0.667,0,1,0
		c0.091,1.576,2.551,0.783,2,3c-4.353-1.019-4.598,2.068-7,3C96.952,235.971,99.834,235.52,100.553,232.905z"/>
	<path display="inline" fill-rule="evenodd" clip-rule="evenodd" fill="#747887" d="M68.553,241.905c-4.29-2.979,5.467-1.282,2-3
		c-0.716-2.716,4.716,0.716,4-2c1.762,2.509,1.652,0.702,4,2c-0.224,0.776-0.027,1.973-1,2c4.062,5.308,4.658-3.135,1-5
		c0.851,0.184,0.943-0.39,1-1c2,0,4,0,6,0c0.667,0,1.333,0,2,0c-5.144,1.913-1.377,6.839-7,10c-4.863,0.863-5.137-2.863-10-2
		C70.333,242.126,69.715,241.743,68.553,241.905z"/>
	<path display="inline" fill-rule="evenodd" clip-rule="evenodd" fill="#525359" d="M159.553,237.905c2.091-0.576,2.854-2.479,6-2
		c-1.174,4.493-5.68,5.653-7,10c-0.667,0-1.333,0-2,0c-2.793-2.7,2.445-1.793,3-4c-0.239-1.534-1.646-0.146-2,1
		c-3.518-1.712,2.509-2.015,2-4C159.553,238.572,159.553,238.238,159.553,237.905z"/>
	<path display="inline" fill-rule="evenodd" clip-rule="evenodd" fill="#3D3C42" d="M151.553,241.905c3.528-0.139,4.472-2.861,8-3
		c0.509,1.985-5.518,2.288-2,4c0.354-1.146,1.761-2.534,2-1c-0.555,2.207-5.793,1.3-3,4c-2.492-0.841-5.357-1.309-9-1
		C147.828,242.847,151.279,243.964,151.553,241.905z"/>
	<path display="inline" fill-rule="evenodd" clip-rule="evenodd" fill="#626571" d="M168.553,237.905c-0.055,2.896,7.163,7.468,2,9
		c3.229-2.879-10.561-3.04-7,1c-1.78-0.553-4.153-0.514-5-2c1.32-4.347,5.826-5.507,7-10c0.057-0.61,0.149-1.184,1-1
		C167.414,235.712,167.147,237.645,168.553,237.905z"/>
	<path display="inline" fill-rule="evenodd" clip-rule="evenodd" fill="#626571" d="M-17.447,238.905c3.109,0.891,4.659,3.341,8,4
		c-1.275,2.059-1.595,5.072-5,5C-15.636,245.095-16.697,242.155-17.447,238.905z"/>
	<path display="inline" fill-rule="evenodd" clip-rule="evenodd" fill="#020202" d="M78.553,254.905c-2.397-2.897,3.281-4.123,6-5
		c-0.027-0.973-1.224-0.776-2-1c0.31-1.357,2.504-0.83,4-1c0.281,1.615-0.945,1.722-1,3
		C83.936,252.955,80.741,253.427,78.553,254.905z"/>
	<path display="inline" fill-rule="evenodd" clip-rule="evenodd" fill="#898D99" d="M78.553,254.905c2.188-1.479,5.383-1.95,7-4
		c0.333,0,0.667,0,1,0c0.61,0.057,1.184,0.149,1,1c-0.792,2.875-2.757,4.576-4,7c-1.37-1.963-6.03-0.637-6-4
		C77.886,254.905,78.22,254.905,78.553,254.905z"/>
	<path display="inline" fill-rule="evenodd" clip-rule="evenodd" fill="#A0A3AF" d="M89.553,251.905c1.616,3.384,11.96-1.96,12,3
		c-1.794-0.127-2.109,1.225-4,1c-1.278,1.388-4.722,0.612-6,2c-2.395,0.604-4.562,1.438-8,1c1.243-2.424,3.208-4.125,4-7
		C88.22,251.905,88.886,251.905,89.553,251.905z"/>
	<path display="inline" fill-rule="evenodd" clip-rule="evenodd" fill="#020202" d="M77.553,162.905c2.279,0.279,3.759-0.241,4-2
		c5.056,0.477,35.013,4.739,12,3c-2.23-0.169-7.64-2.475-10,0C81.795,163.33,77.678,165.114,77.553,162.905z"/>
	<path display="inline" fill-rule="evenodd" clip-rule="evenodd" fill="#B5B8C0" d="M62.553,161.905c3.769-0.769,4.78,1.22,8,1
		c-0.616,3.213,3.6,1.37,1,4c-2,0-4,0-6,0c0.615-0.891,1.208-1.789,0-2c-0.904,2.415-5.645,0.427-6-1c1.135-0.19,0.555-1.003,0-1
		C59.721,161.74,61.134,161.819,62.553,161.905z"/>
	<path display="inline" fill-rule="evenodd" clip-rule="evenodd" fill="#A0A3AF" d="M77.553,162.905c0.125,2.209,4.242,0.425,6,1
		c1.453,0.547,5.169-1.169,5,1c-7.786-1.453-9.733,2.934-17,2c2.6-2.63-1.616-0.787-1-4
		C72.886,162.905,75.22,162.905,77.553,162.905z"/>
	<path display="inline" fill-rule="evenodd" clip-rule="evenodd" fill="#020202" d="M171.553,169.905c-0.161-1.172-1.823-0.844-3-1
		c3.525-3.127,37.182-1.37,10-1c0.027,0.973,1.224,0.776,2,1c-0.431,2.236-4.929,0.405-7,1
		C172.886,169.905,172.22,169.905,171.553,169.905z"/>
	<path display="inline" fill-rule="evenodd" clip-rule="evenodd" fill="#CBCDD2" d="M199.553,171.905c-2.527,1.233-6.623,7.5-13,8
		c0.755-4.384-3.032-8.129,1-10c-0.776-0.224-1.973-0.027-2-1C190.414,169.712,196.81,168.981,199.553,171.905z"/>
	<path display="inline" fill-rule="evenodd" clip-rule="evenodd" fill="#010101" d="M203.553,172.905c2.433-3.176,8.081,2.473,5,5
		c-2.396,0.396,0.555-4.555-3-3c0-0.333,0-0.667,0-1C204.391,174.067,203.774,173.685,203.553,172.905z"/>
	<path display="inline" fill-rule="evenodd" clip-rule="evenodd" fill="#626571" d="M-30.447,222.905c-0.052-6.053,2.921-9.079,4-14
		c-0.333,0-0.667,0-1,0c0.221-0.779,0.837-1.163,2-1c0.292,3.042,5.288,1.378,6,4c2.25,4.663-5.483,4.411-2,7
		c0.914-1.753,1.859-3.475,5-3c-1.386,0.613-0.15,3.85-2,4c-0.485-1.78-1.066,0.434-2,1c-1.352-0.314-1.91-1.424-4-1
		c0.608,4.608-4.433,3.567-6,6C-30.447,224.905-30.447,223.905-30.447,222.905z"/>
	<path display="inline" fill-rule="evenodd" clip-rule="evenodd" fill="#626571" d="M207.553,216.905c-1.667,0-3.333,0-5,0
		c-0.013-1.987-2.729-1.271-2-4c0.61-0.057,1.184-0.149,1-1C204.53,214.067,205.706,212.85,207.553,216.905z"/>
	<path display="inline" fill-rule="evenodd" clip-rule="evenodd" fill="#CBCDD2" d="M-5.447,217.905c-5.175-1.492-8.735-4.598-14-6
		c-0.712-2.622-5.708-0.958-6-4c2.548-3.785,6.81-5.856,10-9c4.591,2.021,7.637-9.324,13-4c-1.49-2.237-4.657-2.767,1-5
		C-2.395,199.624-2.244,210.441-5.447,217.905z"/>
	<path display="inline" fill-rule="evenodd" clip-rule="evenodd" fill="#A0A3AF" d="M-24.447,233.905c5.7-3.15,7.407-7.892,13-8
		c-2.016-4.088,6.549-7.82,7-4c0,1.333,0,2.667,0,4c-1.625,2.375-1.942,6.058-3,9c0.166,3.499-0.266,6.401-2,8
		c-3.341-0.659-4.891-3.109-8-4c-0.81-0.19-0.997-1.003-2-1C-20.24,235.698-24.147,236.605-24.447,233.905z"/>
	<path display="inline" fill-rule="evenodd" clip-rule="evenodd" fill="#CBCDD2" d="M210.553,224.905c-4.333,0-8.667,0-13,0
		c-0.776-0.224-1.973-0.027-2-1c5.072,0.406,5.841-3.492,9-5c2.299,1.244,4.602,3.096,6,0c-0.616,3.213,3.6,1.37,1,4
		c0,0.333,0,0.667,0,1C210.703,223.722,210.61,224.295,210.553,224.905z"/>
	<path display="inline" fill-rule="evenodd" clip-rule="evenodd" fill="#E7E7EA" d="M198.553,215.905c1.419-0.086,2.832-0.165,3,1
		c-2.313,3.687-7.09,4.91-9,9c-0.333,0-0.667,0-1,0c-3.584,0.144,0.103-2.564-2-5C194.061,223.319,194.26,216.606,198.553,215.905z"
		/>
	<path display="inline" fill-rule="evenodd" clip-rule="evenodd" fill="#020202" d="M211.553,223.905c1.484,0.437-0.395,1.279,0,3
		c-3.396,0.271-8.107-0.774-10,1c-7.605,0.755-9.958-1.599-1-1c2.17-1.83,8.188,0.188,10-2
		C210.61,224.295,210.703,223.722,211.553,223.905z"/>
	<path display="inline" fill-rule="evenodd" clip-rule="evenodd" fill="#898D99" d="M100.553,232.905c-0.719,2.614-3.602,3.065-4,6
		c-1.105,2.215-5.188,0.883-3,2c0.294,3.529,2.706-3.529,3,0c-3.251,1.416-2.68,6.654-8,6c-3.914,0.581-5.807-0.86-8-2
		c5.623-3.161,1.856-8.087,7-10c-0.667,0-1.333,0-2,0C88.996,232.682,96.752,234.771,100.553,232.905z"/>
	<path display="inline" fill-rule="evenodd" clip-rule="evenodd" fill="#A0A3AF" d="M159.553,238.905c-3.528,0.139-4.472,2.861-8,3
		c-1.278-0.055-1.385-1.281-3-1c2.706-1.96,6.636-2.698,11-3C159.553,238.238,159.553,238.572,159.553,238.905z"/>
	<path display="inline" fill-rule="evenodd" clip-rule="evenodd" fill="#898D99" d="M144.553,244.905c-1.583,0.083-3.814-0.48-4,1
		c-1.667,0-3.333,0-5,0c3.416-2.584,8.643-3.357,13-5c1.615-0.281,1.722,0.945,3,1c-0.274,2.059-3.726,0.941-4,3
		C146.553,244.905,145.553,244.905,144.553,244.905z"/>
	<path display="inline" fill-rule="evenodd" clip-rule="evenodd" fill="#A0A3AF" d="M130.553,243.905c-1.008,3.008,2.228,1.772,4,2
		c-0.31,1.357-2.504,0.83-4,1c-5.494,0.303-10.312,0.178-5-3c-1.008,3.008,2.228,1.772,4,2
		C129.777,245.129,129.581,243.933,130.553,243.905z"/>
	<path display="inline" fill-rule="evenodd" clip-rule="evenodd" fill="#747887" d="M163.553,247.905c-3.561-4.04,10.229-3.879,7-1
		C167.48,246.757,166.056,250.424,163.553,247.905z"/>
	<path display="inline" fill-rule="evenodd" clip-rule="evenodd" fill="#010101" d="M126.553,247.905c-0.169,2.169,3.547,0.453,5,1
		c-1.616,1.225-11.96,2.67-12-1C121.886,247.905,124.22,247.905,126.553,247.905z"/>
	<path display="inline" fill-rule="evenodd" clip-rule="evenodd" fill="#626571" d="M57.553,237.905c7.141-0.525,12.955-2.378,21-2
		c3.658,1.865,3.062,10.308-1,5c0.973-0.027,0.776-1.224,1-2c-2.348-1.298-2.238,0.509-4-2c0.716,2.716-4.716-0.716-4,2
		c3.467,1.718-6.29,0.021-2,3c-3.752-0.914-7.069-2.265-11-3c-0.776-0.224-1.973-0.027-2-1
		C56.22,237.905,56.886,237.905,57.553,237.905z"/>
</g>
<g opacity="0.75">
	<text transform="matrix(0.7054 0 0 1 194.333 365.4746)" fill="#A8C4D9" font-family="'AtlasGrotesk-Regular'" font-size="14">CAPTIVE</text>
</g>
<g opacity="0.75">
	<text transform="matrix(0.7054 0 0 1 194.333 440.5723)" fill="#A8C4D9" font-family="'AtlasGrotesk-Regular'" font-size="14">WILD</text>
</g>
<g opacity="0.75">
	<text transform="matrix(0.7054 0 0 1 194.333 266.9009)" fill="#A8C4D9" font-family="'AtlasGrotesk-Regular'" font-size="14">CAPTIVE</text>
</g>
<g opacity="0.75">
	<text transform="matrix(0.7054 0 0 1 194.333 526.5723)" fill="#A8C4D9" font-family="'AtlasGrotesk-Regular'" font-size="14">CAPTIVE</text>
</g>
<g opacity="0.75">
	<text transform="matrix(0.7054 0 0 1 194.333 570.9004)" fill="#A8C4D9" font-family="'AtlasGrotesk-Regular'" font-size="14">WILD</text>
</g>
<g opacity="0.75">
	<text transform="matrix(0.7054 0 0 1 194.333 647.8223)" fill="#A8C4D9" font-family="'AtlasGrotesk-Regular'" font-size="14">CAPTIVE</text>
</g>
<g opacity="0.75">
	<text transform="matrix(0.7054 0 0 1 194.333 723.0723)" fill="#A8C4D9" font-family="'AtlasGrotesk-Regular'" font-size="14">WILD</text>
</g>
<text transform="matrix(0.7054 0 0 1 67.415 223)" fill="#FFFFFF" font-family="'AtlasGrotesk-Bold'" font-size="18">BELUGA</text>
<text transform="matrix(0.7054 0 0 1 67.415 324)" fill="#FFFFFF" font-family="'AtlasGrotesk-Bold'" font-size="18">BOTTLENOSE</text>
<text transform="matrix(0.7054 0 0 1 67.415 504)" fill="#FFFFFF" font-family="'AtlasGrotesk-Bold'" font-size="18">P. WHITE-SIDED</text>
<text transform="matrix(0.7054 0 0 1 67.415 623)" fill="#FFFFFF" font-family="'AtlasGrotesk-Bold'" font-size="18">ORCA</text>
</svg>
